<svg width="14" height="8" fill="none" xmlns="http://www.w3.org/2000/svg"><path fill-rule="evenodd" clip-rule="evenodd" d="M6.85 7.967h.836s.253-.028.382-.168c.12-.128.115-.368.115-.368s-.016-1.125.505-1.29c.514-.163 1.174 1.087 1.873 1.568.528.363.93.284.93.284l1.87-.026s.978-.06.514-.831c-.038-.063-.27-.57-1.39-1.611-1.172-1.09-1.015-.914.397-2.8.86-1.147 1.204-1.848 1.096-2.148-.102-.286-.735-.21-.735-.21l-2.105.012s-.156-.021-.271.048a.59.59 0 00-.186.227s-.333.888-.778 1.644c-.937 1.594-1.312 1.678-1.465 1.58-.357-.231-.268-.928-.268-1.422C8.17.91 8.404.266 7.715.1 7.486.044 7.318.008 6.732.002c-.75-.008-1.386.002-1.746.179-.24.117-.425.379-.312.394.139.019.454.085.621.313.216.294.208.954.208.954s.124 1.819-.29 2.045c-.283.155-.672-.161-1.508-1.608-.428-.74-.751-1.56-.751-1.56S2.89.566 2.78.484c-.135-.099-.323-.13-.323-.13l-2 .013S.155.375.045.506C-.052.622.038.863.038.863s1.566 3.67 3.34 5.52C5.002 8.077 6.85 7.966 6.85 7.966z" fill="#122659"/></svg>