<svg width="12" height="12" fill="none" xmlns="http://www.w3.org/2000/svg"><path d="M6 0c1.63 0 1.834.006 2.473.036.64.03 1.074.13 1.457.279.396.152.73.359 1.063.692.305.3.541.663.692 1.063.148.382.249.818.279 1.457.028.64.036.843.036 2.473s-.006 1.834-.036 2.473c-.03.64-.13 1.074-.279 1.457-.15.4-.386.764-.692 1.063-.3.305-.663.541-1.063.692-.382.148-.818.249-1.457.279C7.833 11.992 7.63 12 6 12s-1.834-.006-2.473-.036c-.64-.03-1.074-.13-1.457-.279-.4-.15-.763-.386-1.063-.692A2.942 2.942 0 01.315 9.93C.166 9.548.066 9.112.036 8.473.008 7.833 0 7.63 0 6s.006-1.834.036-2.473c.03-.64.13-1.074.279-1.457.15-.4.386-.764.692-1.063.3-.305.662-.542 1.063-.692.383-.149.817-.249 1.457-.279C4.167.008 4.37 0 6 0zm0 3a3 3 0 100 6 3 3 0 000-6zm3.9-.15a.75.75 0 10-1.5 0 .75.75 0 001.5 0zM6 4.2a1.8 1.8 0 110 3.6 1.8 1.8 0 010-3.6z" fill="#122659"/></svg>