<svg width="132" height="21" fill="none" xmlns="http://www.w3.org/2000/svg"><path d="M7.203 16.8c-2.247 0-3.988-.552-5.225-1.657C.757 14.04.106 12.483.024 10.477A59.976 59.976 0 010 8.423c0-.964.008-1.664.024-2.1.082-1.99.741-3.539 1.978-4.643C3.255.56 4.99 0 7.202 0c1.45 0 2.71.241 3.785.723 1.075.467 1.905 1.113 2.49 1.937.587.809.896 1.727.928 2.753v.047a.414.414 0 01-.17.327.533.533 0 01-.342.116h-2.32c-.195 0-.342-.039-.44-.116-.097-.078-.178-.226-.243-.444-.26-.98-.692-1.664-1.294-2.053-.603-.404-1.408-.607-2.418-.607-2.344 0-3.564 1.253-3.662 3.757-.016.42-.025 1.066-.025 1.937 0 .87.009 1.532.025 1.983.098 2.504 1.318 3.757 3.662 3.757 1.01 0 1.815-.203 2.418-.607.618-.404 1.05-1.089 1.294-2.053.048-.218.122-.366.22-.444.113-.077.268-.116.463-.116h2.32a.51.51 0 01.366.14.37.37 0 01.146.35 4.96 4.96 0 01-.927 2.776c-.586.81-1.416 1.455-2.49 1.937-1.075.467-2.337.7-3.785.7zm10.416-.233a.579.579 0 01-.416-.164.528.528 0 01-.17-.396V.56c0-.171.056-.303.17-.397A.579.579 0 0117.62 0h2.026c.18 0 .317.054.415.163a.485.485 0 01.171.397v15.447a.528.528 0 01-.17.396c-.099.11-.237.164-.416.164H17.62zm11.32.233c-1.807 0-3.247-.498-4.322-1.493-1.058-1.011-1.62-2.427-1.684-4.247l-.025-.583.025-.584c.081-1.773.65-3.165 1.709-4.176C25.716 4.706 27.148 4.2 28.939 4.2c1.92 0 3.402.56 4.444 1.68C34.44 7 34.97 8.493 34.97 10.36v.49a.528.528 0 01-.171.397.61.61 0 01-.44.163h-8.106v.187c.033.855.277 1.579.733 2.17.472.575 1.115.863 1.929.863.96 0 1.733-.358 2.32-1.073.146-.171.26-.28.34-.327a.986.986 0 01.416-.07h2.1a.51.51 0 01.366.14c.114.078.17.179.17.303 0 .374-.235.817-.707 1.33-.456.498-1.115.934-1.978 1.307-.863.373-1.864.56-3.003.56zm2.71-7.35v-.07c0-.918-.244-1.657-.732-2.217-.472-.56-1.132-.84-1.978-.84-.846 0-1.506.28-1.978.84-.472.56-.708 1.3-.708 2.217v.07h5.396zm9.952 7.117c-.244 0-.431-.047-.562-.14a1.18 1.18 0 01-.317-.444L36.156 5.157l-.049-.21c0-.14.05-.257.147-.35a.55.55 0 01.39-.164h1.978c.31 0 .521.148.635.444l3.247 8.19 3.248-8.19a.97.97 0 01.22-.304.634.634 0 01.414-.14h2.003c.13 0 .244.055.341.164.114.093.171.21.171.35a.678.678 0 01-.024.21l-4.59 10.826a1.18 1.18 0 01-.318.444c-.13.093-.317.14-.561.14H41.6zm14.544.233c-1.807 0-3.248-.498-4.322-1.493-1.058-1.011-1.62-2.427-1.685-4.247l-.024-.583.024-.584c.082-1.773.651-3.165 1.71-4.176C52.921 4.706 54.353 4.2 56.144 4.2c1.92 0 3.402.56 4.444 1.68 1.058 1.12 1.587 2.613 1.587 4.48v.49a.528.528 0 01-.171.397.61.61 0 01-.44.163H53.46v.187c.033.855.277 1.579.732 2.17.472.575 1.115.863 1.93.863.96 0 1.733-.358 2.319-1.073.146-.171.26-.28.342-.327a.986.986 0 01.415-.07h2.1a.51.51 0 01.366.14c.114.078.17.179.17.303 0 .374-.235.817-.707 1.33-.456.498-1.115.934-1.978 1.307-.863.373-1.864.56-3.003.56zm2.71-7.35v-.07c0-.918-.244-1.657-.732-2.217-.473-.56-1.132-.84-1.978-.84-.847 0-1.506.28-1.978.84-.472.56-.708 1.3-.708 2.217v.07h5.396zm6.498 7.117a.579.579 0 01-.415-.164.528.528 0 01-.17-.396V5.017c0-.156.056-.288.17-.397a.542.542 0 01.415-.187h1.978a.61.61 0 01.44.164.555.555 0 01.17.42v.956c.391-.497.88-.879 1.465-1.143.603-.264 1.286-.397 2.051-.397h1.001c.18 0 .318.055.415.164a.482.482 0 01.171.396v1.68a.528.528 0 01-.17.397c-.098.109-.237.163-.416.163h-1.904c-.765 0-1.367.21-1.807.63-.44.42-.66.996-.66 1.727v6.417a.528.528 0 01-.17.396.61.61 0 01-.44.164h-2.124zm10.475 0a.579.579 0 01-.416-.164.528.528 0 01-.17-.396V.817c0-.171.048-.311.146-.42a.61.61 0 01.44-.164h7.08c1.905 0 3.32.405 4.249 1.214.944.793 1.416 1.882 1.416 3.266 0 .81-.212 1.501-.635 2.077-.407.56-.887.964-1.44 1.213.683.296 1.253.778 1.709 1.447.472.669.708 1.431.708 2.287 0 1.446-.513 2.613-1.539 3.5-1.009.886-2.433 1.33-4.272 1.33h-7.276zm6.64-9.637c.847 0 1.49-.194 1.93-.583.44-.39.659-.91.659-1.564 0-.669-.22-1.182-.66-1.54-.439-.373-1.082-.56-1.928-.56h-3.834V6.93h3.834zm.245 7.163c.846 0 1.506-.217 1.978-.653.472-.451.708-1.019.708-1.703 0-.7-.236-1.268-.708-1.704-.472-.45-1.132-.676-1.978-.676h-4.078v4.736h4.078zM95.374 16.8c-.83 0-1.595-.156-2.295-.467-.684-.326-1.23-.762-1.636-1.306a3.014 3.014 0 01-.586-1.797c0-1.058.447-1.913 1.343-2.567.895-.653 2.124-1.096 3.686-1.33l3.346-.466v-.49c0-.685-.18-1.198-.538-1.54-.358-.343-.936-.514-1.733-.514-.537 0-.977.101-1.319.304a4.048 4.048 0 00-.781.56 17.67 17.67 0 01-.39.396c-.066.187-.188.28-.367.28h-1.88a.599.599 0 01-.39-.14.492.492 0 01-.147-.373c.016-.389.212-.832.586-1.33.39-.498.985-.926 1.782-1.283.798-.358 1.775-.537 2.93-.537 1.921 0 3.321.412 4.2 1.237.879.824 1.318 1.905 1.318 3.243v7.327a.528.528 0 01-.171.396c-.097.11-.236.164-.415.164H99.94a.579.579 0 01-.415-.164.528.528 0 01-.171-.396v-.91c-.358.497-.871.91-1.539 1.236-.65.311-1.465.467-2.441.467zm.83-2.217c.895 0 1.628-.28 2.197-.84.57-.56.855-1.376.855-2.45v-.49l-2.442.374c-.944.14-1.66.365-2.148.676-.472.311-.708.693-.708 1.144 0 .497.22.886.659 1.166.44.28.968.42 1.587.42zm16.463 2.217c-1.676 0-2.978-.552-3.906-1.657v.864a.528.528 0 01-.171.396c-.098.11-.236.164-.415.164h-1.929a.578.578 0 01-.415-.164.528.528 0 01-.171-.396V.56c0-.171.057-.303.171-.397a.578.578 0 01.415-.163h2.075c.179 0 .318.054.415.163a.484.484 0 01.171.397v5.18c.928-1.027 2.182-1.54 3.76-1.54 1.644 0 2.906.513 3.785 1.54.879 1.027 1.351 2.357 1.416 3.99.016.187.024.436.024.747 0 .326-.008.583-.024.77-.065 1.68-.537 3.025-1.416 4.036-.879 1.011-2.141 1.517-3.785 1.517zm-.903-2.497c1.758 0 2.694-1.034 2.808-3.103.016-.156.024-.389.024-.7 0-.311-.008-.544-.024-.7-.114-2.069-1.05-3.103-2.808-3.103-.912 0-1.611.28-2.1.84-.472.544-.724 1.205-.757 1.983l-.024.887.024.91c.049.84.301 1.547.757 2.123.456.576 1.156.863 2.1.863zM122.38 21a.48.48 0 01-.342-.14.44.44 0 01-.146-.327c0-.14.032-.264.097-.373l1.905-4.317-4.688-10.57a.857.857 0 01-.098-.326.565.565 0 01.171-.35.472.472 0 01.366-.164h1.978c.309 0 .529.148.659.444l3.248 7.63 3.345-7.63c.13-.296.35-.444.659-.444h1.953a.48.48 0 01.342.14.413.413 0 01.171.327.906.906 0 01-.098.373l-6.909 15.284c-.147.295-.375.443-.684.443h-1.929z" fill="#122659"/></svg>