<svg width="135" height="45" fill="none" xmlns="http://www.w3.org/2000/svg"><path d="M12.479 24.937c.257.276.624.44 1.044.38.369-.05.737-.101 1.106-.154a84.014 84.014 0 00-8.8 4.987 439.083 439.083 0 016.804-11.629l-.868 5.077c-.115.677.24 1.132.714 1.34zm72.915 9.773c-9.038-1.383-6.204-11.767-.113-14.726 3.92-1.904 8.88-1.961 13.117-1.544 1.599 8.101-3.62 17.705-13.004 16.27zm-82.665.761a82.257 82.257 0 0122.369-11.818c1.393-.483.845-2.744-.608-2.542-2.582.365-5.162.727-7.742 1.09 9.45-9.92 22.187-15.355 35.524-17.6C66.005 2.287 87.422.3 96.399 13.543a12.54 12.54 0 011.183 2.207c-6.05-.487-12.98.17-17.367 4.657-3.587 3.67-4.911 9.976-1.145 13.993 9.72 10.37 24.264-4.297 22.295-15.56 13.907 2.411 25.717 12.03 31.999 24.819.435.885 1.818.379 1.439-.576-5.714-14.391-19.049-24.756-34.148-26.97C95.592.905 75.257.01 61.967.841 44.659 1.918 27.213 7.485 14.95 20.299c.452-2.636.902-5.273 1.353-7.91.207-1.207-1.56-2.179-2.276-1.035A450.517 450.517 0 00.794 33.864c-.654 1.192.942 2.346 1.935 1.607z" fill="#8DD9E5"/><path d="M12.479 24.937c.257.276.624.44 1.044.38.369-.05.737-.101 1.106-.154a84.014 84.014 0 00-8.8 4.987 439.083 439.083 0 016.804-11.629l-.868 5.077c-.115.677.24 1.132.714 1.34zm72.915 9.773c-9.038-1.383-6.204-11.767-.113-14.726 3.92-1.904 8.88-1.961 13.117-1.544 1.599 8.101-3.62 17.705-13.004 16.27zm-82.665.761a82.257 82.257 0 0122.369-11.818c1.393-.483.845-2.744-.608-2.542-2.582.365-5.162.727-7.742 1.09 9.45-9.92 22.187-15.355 35.524-17.6C66.005 2.287 87.422.3 96.399 13.543a12.54 12.54 0 011.183 2.207c-6.05-.487-12.98.17-17.367 4.657-3.587 3.67-4.911 9.976-1.145 13.993 9.72 10.37 24.264-4.297 22.295-15.56 13.907 2.411 25.717 12.03 31.999 24.819.435.885 1.818.379 1.439-.576-5.714-14.391-19.049-24.756-34.148-26.97C95.592.905 75.257.01 61.967.841 44.659 1.918 27.213 7.485 14.95 20.299c.452-2.636.902-5.273 1.353-7.91.207-1.207-1.56-2.179-2.276-1.035A450.517 450.517 0 00.794 33.864c-.654 1.192.942 2.346 1.935 1.607z" fill="#5879E8"/></svg>