<svg width="57" height="72" fill="none" xmlns="http://www.w3.org/2000/svg"><path d="M36.58 23.643c-6.435-2.472-14.386-3.417-20.678-.335.678 5.29 3.353 10.676 6.02 14.802 4.48 6.934 14.8 13.48 22.735 6.993 8.939-7.307-.277-18.463-8.078-21.46zm-5.157 25.294C22.52 46.023 15.15 34.927 13.77 24.556c-.536.371-1.062.767-1.562 1.213-12.778 11.405-5.954 29.614.011 42.379.073.155.1.308.106.457l.308.155c-.469-2.727-.55-5.398-.234-8.26.157-1.424 2.446-1.385 2.289.048-.381 3.448-.182 6.633.657 10.008.25 1.01-.87 1.623-1.718 1.214A113.508 113.508 0 01.613 64.414c-1.225-.803-.087-2.58 1.206-1.905l6.991 3.647c-5.628-12.692-10.177-27.96-.225-39.84 1.406-1.678 3.098-3.047 4.98-4.13-.135-3.179.339-6.224 1.569-8.863 7.501-16.1 28.396-14.58 41.138-6.33.955.618.054 2.047-.942 1.488C42.9 1.486 21.273-.86 16.286 16.665c-.408 1.434-.566 2.925-.544 4.439 10.444-4.498 25.177-1.304 31.641 7.62 8.333 11.504-2.712 24.55-15.96 20.213z" fill="#8DD9E5"/><path d="M36.58 23.643c-6.435-2.472-14.386-3.417-20.678-.335.678 5.29 3.353 10.676 6.02 14.802 4.48 6.934 14.8 13.48 22.735 6.993 8.939-7.307-.277-18.463-8.078-21.46zm-5.157 25.294C22.52 46.023 15.15 34.927 13.77 24.556c-.536.371-1.062.767-1.562 1.213-12.778 11.405-5.954 29.614.011 42.379.073.155.1.308.106.457l.308.155c-.469-2.727-.55-5.398-.234-8.26.157-1.424 2.446-1.385 2.289.048-.381 3.448-.182 6.633.657 10.008.25 1.01-.87 1.623-1.718 1.214A113.508 113.508 0 01.613 64.414c-1.225-.803-.087-2.58 1.206-1.905l6.991 3.647c-5.628-12.692-10.177-27.96-.225-39.84 1.406-1.678 3.098-3.047 4.98-4.13-.135-3.179.339-6.224 1.569-8.863 7.501-16.1 28.396-14.58 41.138-6.33.955.618.054 2.047-.942 1.488C42.9 1.486 21.273-.86 16.286 16.665c-.408 1.434-.566 2.925-.544 4.439 10.444-4.498 25.177-1.304 31.641 7.62 8.333 11.504-2.712 24.55-15.96 20.213z" fill="#5879E8"/></svg>