<svg width="108" height="37" fill="none" xmlns="http://www.w3.org/2000/svg"><path d="M98.04 17.456a.936.936 0 00-.828-.32l-.885.11a67.251 67.251 0 007.102-3.895 356.346 356.346 0 01-5.607 9.262l.769-4.071c.102-.543-.174-.913-.55-1.086zM39.96 8.647c7.197 1.23 4.779 9.542-.129 11.843-3.158 1.479-7.12 1.46-10.497 1.07-1.156-6.535 3.153-14.19 10.626-12.913zm66.023.466a65.715 65.715 0 01-18.038 9.21c-1.12.37-.716 2.196.447 2.052l6.199-.775c-7.694 7.854-17.946 12.057-28.63 13.689-11 1.681-28.133 3-35.103-7.766a10.077 10.077 0 01-.913-1.79c4.824.47 10.368.033 13.938-3.518 2.919-2.904 4.07-7.957 1.122-11.236C37.4.515 25.565 12.12 26.97 21.2 15.901 19.08 6.613 11.192 1.787.827 1.453.11.341.498.63 1.27c4.35 11.647 14.844 20.154 26.868 22.131 3.816 12.295 20.042 13.28 30.667 12.785 13.837-.64 27.851-4.89 37.834-15.033L94.8 27.496c-.183.967 1.213 1.772 1.802.862a363.985 363.985 0 0010.902-17.928c.54-.95-.717-1.898-1.521-1.317z" fill="#8DD9E5"/><path d="M98.04 17.456a.936.936 0 00-.828-.32l-.885.11a67.251 67.251 0 007.102-3.895 356.346 356.346 0 01-5.607 9.262l.769-4.071c.102-.543-.174-.913-.55-1.086zM39.96 8.647c7.197 1.23 4.779 9.542-.129 11.843-3.158 1.479-7.12 1.46-10.497 1.07-1.156-6.535 3.153-14.19 10.626-12.913zm66.023.466a65.715 65.715 0 01-18.038 9.21c-1.12.37-.716 2.196.447 2.052l6.199-.775c-7.694 7.854-17.946 12.057-28.63 13.689-11 1.681-28.133 3-35.103-7.766a10.077 10.077 0 01-.913-1.79c4.824.47 10.368.033 13.938-3.518 2.919-2.904 4.07-7.957 1.122-11.236C37.4.515 25.565 12.12 26.97 21.2 15.901 19.08 6.613 11.192 1.787.827 1.453.11.341.498.63 1.27c4.35 11.647 14.844 20.154 26.868 22.131 3.816 12.295 20.042 13.28 30.667 12.785 13.837-.64 27.851-4.89 37.834-15.033L94.8 27.496c-.183.967 1.213 1.772 1.802.862a363.985 363.985 0 0010.902-17.928c.54-.95-.717-1.898-1.521-1.317z" fill="#5879E8"/></svg>