<svg xmlns="http://www.w3.org/2000/svg">
    <symbol id="cleverBaby" viewBox="0 0 132 21">
        <path d="M7.20274 16.8C4.95646 16.8 3.21478 16.2478 1.9777 15.1433C0.756898 14.0389 0.105803 12.4833 0.024416 10.4767C0.00813868 10.0567 0 9.37222 0 8.42333C0 7.45889 0.00813868 6.75889 0.024416 6.32333C0.105803 4.33222 0.765037 2.78444 2.00212 1.68C3.25548 0.56 4.98902 0 7.20274 0C8.65143 0 9.91293 0.241111 10.9872 0.723334C12.0615 1.19 12.8917 1.83556 13.4777 2.66C14.0637 3.46889 14.3729 4.38667 14.4055 5.41333V5.46C14.4055 5.58444 14.3485 5.69333 14.2346 5.78667C14.1369 5.86444 14.023 5.90333 13.8927 5.90333H11.5732C11.3779 5.90333 11.2314 5.86444 11.1337 5.78667C11.0361 5.70889 10.9547 5.56111 10.8896 5.34333C10.6291 4.36333 10.1978 3.67889 9.59552 3.29C8.99326 2.88556 8.18752 2.68333 7.17833 2.68333C4.83438 2.68333 3.61358 3.93556 3.51592 6.44C3.49964 6.86 3.4915 7.50556 3.4915 8.37667C3.4915 9.24778 3.49964 9.90889 3.51592 10.36C3.61358 12.8644 4.83438 14.1167 7.17833 14.1167C8.18752 14.1167 8.99326 13.9144 9.59552 13.51C10.2141 13.1056 10.6454 12.4211 10.8896 11.4567C10.9384 11.2389 11.0117 11.0911 11.1093 11.0133C11.2233 10.9356 11.3779 10.8967 11.5732 10.8967H13.8927C14.0392 10.8967 14.1613 10.9433 14.259 11.0367C14.3729 11.13 14.4218 11.2467 14.4055 11.3867C14.3729 12.4133 14.0637 13.3389 13.4777 14.1633C12.8917 14.9722 12.0615 15.6178 10.9872 16.1C9.91293 16.5667 8.65143 16.8 7.20274 16.8Z" fill="#122659"/>
        <path d="M17.6185 16.5667C17.4557 16.5667 17.3174 16.5122 17.2034 16.4033C17.0895 16.2944 17.0325 16.1622 17.0325 16.0067V0.56C17.0325 0.388889 17.0895 0.256667 17.2034 0.163334C17.3174 0.0544447 17.4557 0 17.6185 0H19.645C19.8241 0 19.9624 0.0544447 20.0601 0.163334C20.174 0.256667 20.231 0.388889 20.231 0.56V16.0067C20.231 16.1622 20.174 16.2944 20.0601 16.4033C19.9624 16.5122 19.8241 16.5667 19.645 16.5667H17.6185Z" fill="#122659"/>
        <path d="M28.939 16.8C27.1322 16.8 25.6916 16.3022 24.6173 15.3067C23.5593 14.2956 22.9977 12.88 22.9326 11.06L22.9082 10.4767L22.9326 9.89333C23.014 8.12 23.5837 6.72778 24.6417 5.71667C25.716 4.70556 27.1485 4.2 28.939 4.2C30.8597 4.2 32.3409 4.76 33.3827 5.88C34.4407 7 34.9697 8.49333 34.9697 10.36V10.85C34.9697 11.0056 34.9128 11.1378 34.7988 11.2467C34.6849 11.3556 34.5384 11.41 34.3593 11.41H26.2532V11.5967C26.2858 12.4522 26.5299 13.1756 26.9857 13.7667C27.4577 14.3422 28.1007 14.63 28.9146 14.63C29.8749 14.63 30.6481 14.2722 31.2341 13.5567C31.3806 13.3856 31.4945 13.2767 31.5759 13.23C31.6736 13.1833 31.8119 13.16 31.991 13.16H34.0908C34.2373 13.16 34.3593 13.2067 34.457 13.3C34.5709 13.3778 34.6279 13.4789 34.6279 13.6033C34.6279 13.9767 34.3919 14.42 33.9198 14.9333C33.4641 15.4311 32.8048 15.8667 31.9421 16.24C31.0794 16.6133 30.0784 16.8 28.939 16.8ZM31.6492 9.45V9.38C31.6492 8.46222 31.405 7.72333 30.9167 7.16333C30.4446 6.60333 29.7854 6.32333 28.939 6.32333C28.0925 6.32333 27.4333 6.60333 26.9613 7.16333C26.4892 7.72333 26.2532 8.46222 26.2532 9.38V9.45H31.6492Z" fill="#122659"/>
        <path d="M41.601 16.5667C41.3568 16.5667 41.1696 16.52 41.0394 16.4267C40.9092 16.3178 40.8034 16.17 40.722 15.9833L36.1562 5.15667L36.1074 4.94667C36.1074 4.80667 36.1562 4.69 36.2539 4.59667C36.3678 4.48778 36.498 4.43333 36.6445 4.43333H38.6222C38.9315 4.43333 39.1431 4.58111 39.257 4.87667L42.5044 13.0667L45.7517 4.87667C45.8006 4.76778 45.8738 4.66667 45.9715 4.57333C46.0854 4.48 46.2238 4.43333 46.3865 4.43333H48.3887C48.5189 4.43333 48.6328 4.48778 48.7305 4.59667C48.8444 4.69 48.9014 4.80667 48.9014 4.94667C48.9014 5.04 48.8933 5.11 48.877 5.15667L44.2868 15.9833C44.2054 16.17 44.0996 16.3178 43.9694 16.4267C43.8391 16.52 43.6519 16.5667 43.4078 16.5667H41.601Z" fill="#122659"/>
        <path d="M56.1448 16.8C54.338 16.8 52.8974 16.3022 51.8231 15.3067C50.7651 14.2956 50.2035 12.88 50.1384 11.06L50.114 10.4767L50.1384 9.89333C50.2198 8.12 50.7895 6.72778 51.8475 5.71667C52.9219 4.70556 54.3543 4.2 56.1448 4.2C58.0655 4.2 59.5467 4.76 60.5885 5.88C61.6465 7 62.1755 8.49333 62.1755 10.36V10.85C62.1755 11.0056 62.1186 11.1378 62.0046 11.2467C61.8907 11.3556 61.7442 11.41 61.5651 11.41H53.459V11.5967C53.4916 12.4522 53.7357 13.1756 54.1915 13.7667C54.6635 14.3422 55.3065 14.63 56.1204 14.63C57.0807 14.63 57.8539 14.2722 58.4399 13.5567C58.5864 13.3856 58.7003 13.2767 58.7817 13.23C58.8794 13.1833 59.0177 13.16 59.1968 13.16H61.2966C61.4431 13.16 61.5651 13.2067 61.6628 13.3C61.7767 13.3778 61.8337 13.4789 61.8337 13.6033C61.8337 13.9767 61.5977 14.42 61.1257 14.9333C60.6699 15.4311 60.0107 15.8667 59.148 16.24C58.2853 16.6133 57.2842 16.8 56.1448 16.8ZM58.855 9.45V9.38C58.855 8.46222 58.6108 7.72333 58.1225 7.16333C57.6504 6.60333 56.9912 6.32333 56.1448 6.32333C55.2983 6.32333 54.6391 6.60333 54.1671 7.16333C53.695 7.72333 53.459 8.46222 53.459 9.38V9.45H58.855Z" fill="#122659"/>
        <path d="M65.3533 16.5667C65.1905 16.5667 65.0521 16.5122 64.9382 16.4033C64.8242 16.2944 64.7673 16.1622 64.7673 16.0067V5.01667C64.7673 4.86111 64.8242 4.72889 64.9382 4.62C65.0521 4.49556 65.1905 4.43333 65.3533 4.43333H67.331C67.51 4.43333 67.6565 4.48778 67.7704 4.59667C67.8844 4.70556 67.9414 4.84556 67.9414 5.01667V5.97333C68.332 5.47556 68.8203 5.09444 69.4063 4.83C70.0086 4.56556 70.6922 4.43333 71.4573 4.43333H72.4583C72.6374 4.43333 72.7757 4.48778 72.8734 4.59667C72.9874 4.69 73.0443 4.82222 73.0443 4.99333V6.67333C73.0443 6.82889 72.9874 6.96111 72.8734 7.07C72.7757 7.17889 72.6374 7.23333 72.4583 7.23333H70.5539C69.7888 7.23333 69.1866 7.44333 68.7471 7.86333C68.3076 8.28333 68.0879 8.85889 68.0879 9.59V16.0067C68.0879 16.1622 68.0309 16.2944 67.9169 16.4033C67.803 16.5122 67.6565 16.5667 67.4775 16.5667H65.3533Z" fill="#122659"/>
        <path d="M75.8276 16.5667C75.6648 16.5667 75.5264 16.5122 75.4125 16.4033C75.2986 16.2944 75.2416 16.1622 75.2416 16.0067V0.816667C75.2416 0.645556 75.2904 0.505556 75.3881 0.396667C75.502 0.287778 75.6485 0.233333 75.8276 0.233333H82.9082C84.8127 0.233333 86.2288 0.637778 87.1566 1.44667C88.1007 2.24 88.5728 3.32889 88.5728 4.71333C88.5728 5.52222 88.3612 6.21444 87.9379 6.79C87.531 7.35 87.0508 7.75444 86.4974 8.00333C87.181 8.29889 87.7507 8.78111 88.2065 9.45C88.6786 10.1189 88.9146 10.8811 88.9146 11.7367C88.9146 13.1833 88.4018 14.35 87.3764 15.2367C86.3672 16.1233 84.9429 16.5667 83.1036 16.5667H75.8276ZM82.4687 6.93C83.3152 6.93 83.9581 6.73556 84.3976 6.34667C84.8371 5.95778 85.0568 5.43667 85.0568 4.78333C85.0568 4.11444 84.8371 3.60111 84.3976 3.24333C83.9581 2.87 83.3152 2.68333 82.4687 2.68333H78.6354V6.93H82.4687ZM82.7129 14.0933C83.5593 14.0933 84.2186 13.8756 84.6906 13.44C85.1626 12.9889 85.3987 12.4211 85.3987 11.7367C85.3987 11.0367 85.1626 10.4689 84.6906 10.0333C84.2186 9.58222 83.5593 9.35667 82.7129 9.35667H78.6354V14.0933H82.7129Z" fill="#122659"/>
        <path d="M95.3738 16.8C94.5436 16.8 93.7786 16.6444 93.0787 16.3333C92.395 16.0067 91.8497 15.5711 91.4428 15.0267C91.0521 14.4822 90.8568 13.8833 90.8568 13.23C90.8568 12.1722 91.3044 11.3167 92.1997 10.6633C93.0949 10.01 94.3239 9.56667 95.8865 9.33333L99.2315 8.86667V8.37667C99.2315 7.69222 99.0525 7.17889 98.6944 6.83667C98.3363 6.49444 97.7584 6.32333 96.9608 6.32333C96.4237 6.32333 95.9842 6.42444 95.6424 6.62667C95.3168 6.81333 95.0564 7 94.861 7.18667C94.6657 7.38889 94.5355 7.52111 94.4704 7.58333C94.4053 7.77 94.2832 7.86333 94.1041 7.86333H92.2241C92.0776 7.86333 91.9474 7.81667 91.8335 7.72333C91.7358 7.63 91.687 7.50556 91.687 7.35C91.7032 6.96111 91.8986 6.51778 92.2729 6.02C92.6636 5.52222 93.2577 5.09444 94.0553 4.73667C94.8529 4.37889 95.8296 4.2 96.9852 4.2C98.906 4.2 100.306 4.61222 101.185 5.43667C102.064 6.26111 102.503 7.34222 102.503 8.68V16.0067C102.503 16.1622 102.446 16.2944 102.332 16.4033C102.235 16.5122 102.096 16.5667 101.917 16.5667H99.9396C99.7768 16.5667 99.6385 16.5122 99.5245 16.4033C99.4106 16.2944 99.3536 16.1622 99.3536 16.0067V15.0967C98.9955 15.5944 98.4828 16.0067 97.8154 16.3333C97.1643 16.6444 96.3504 16.8 95.3738 16.8ZM96.2039 14.5833C97.0992 14.5833 97.8317 14.3033 98.4014 13.7433C98.9711 13.1833 99.2559 12.3667 99.2559 11.2933V10.8033L96.8143 11.1767C95.8702 11.3167 95.154 11.5422 94.6657 11.8533C94.1937 12.1644 93.9576 12.5456 93.9576 12.9967C93.9576 13.4944 94.1774 13.8833 94.6169 14.1633C95.0564 14.4433 95.5854 14.5833 96.2039 14.5833Z" fill="#122659"/>
        <path d="M112.667 16.8C110.991 16.8 109.689 16.2478 108.761 15.1433V16.0067C108.761 16.1622 108.704 16.2944 108.59 16.4033C108.492 16.5122 108.354 16.5667 108.175 16.5667H106.246C106.083 16.5667 105.945 16.5122 105.831 16.4033C105.717 16.2944 105.66 16.1622 105.66 16.0067V0.56C105.66 0.388889 105.717 0.256667 105.831 0.163334C105.945 0.0544447 106.083 0 106.246 0H108.321C108.5 0 108.639 0.0544447 108.736 0.163334C108.85 0.256667 108.907 0.388889 108.907 0.56V5.74C109.835 4.71333 111.089 4.2 112.667 4.2C114.311 4.2 115.573 4.71333 116.452 5.74C117.331 6.76667 117.803 8.09667 117.868 9.73C117.884 9.91667 117.892 10.1656 117.892 10.4767C117.892 10.8033 117.884 11.06 117.868 11.2467C117.803 12.9267 117.331 14.2722 116.452 15.2833C115.573 16.2944 114.311 16.8 112.667 16.8ZM111.764 14.3033C113.522 14.3033 114.458 13.2689 114.572 11.2C114.588 11.0444 114.596 10.8111 114.596 10.5C114.596 10.1889 114.588 9.95556 114.572 9.8C114.458 7.73111 113.522 6.69667 111.764 6.69667C110.852 6.69667 110.153 6.97667 109.664 7.53667C109.192 8.08111 108.94 8.74222 108.907 9.52L108.883 10.4067L108.907 11.3167C108.956 12.1567 109.208 12.8644 109.664 13.44C110.12 14.0156 110.82 14.3033 111.764 14.3033Z" fill="#122659"/>
        <path d="M122.38 21C122.25 21 122.136 20.9533 122.038 20.86C121.941 20.7667 121.892 20.6578 121.892 20.5333C121.892 20.3933 121.924 20.2689 121.989 20.16L123.894 15.8433L119.206 5.27333C119.141 5.13333 119.108 5.02444 119.108 4.94667C119.125 4.80667 119.182 4.69 119.279 4.59667C119.377 4.48778 119.499 4.43333 119.645 4.43333H121.623C121.932 4.43333 122.152 4.58111 122.282 4.87667L125.53 12.5067L128.875 4.87667C129.005 4.58111 129.225 4.43333 129.534 4.43333H131.487C131.617 4.43333 131.731 4.48 131.829 4.57333C131.943 4.66667 132 4.77556 132 4.9C132 5.00889 131.967 5.13333 131.902 5.27333L124.993 20.5567C124.846 20.8522 124.618 21 124.309 21H122.38Z" fill="#122659"/>
    </symbol>

    <symbol id="decorate-car" viewBox="0 0 106 84">
        <path d="M75.473 53.857c1.329 1.075 3.28.548 4.19-.834 1.018-1.546.118-3.892-1.824-4.096a.731.731 0 01-.45-.22c-.914-.011-1.782.255-2.463 1.047-1.058 1.235-.661 3.125.547 4.103zm-2.757-4.388c1.137-2.336 4.52-3.767 6.826-2.273a.93.93 0 01.411.587c1.734.79 2.793 2.936 2.275 4.944-.736 2.859-4 4.786-6.787 3.562-2.487-1.092-3.951-4.297-2.725-6.82z" fill="#8DD9E5"/><path d="M5.05 66.95c1.692 4.991 4.764 9.365 6.81 14.204.105-.102.224-.2.37-.284 3.79-2.188 7.92-3.705 12.157-4.755-1.78-3-2.286-6.655-.712-10.488 2.237-5.448 11.117-13.552 16.755-7.765l.21.307c3.907.612 7.28 3.336 9.044 6.872a104.63 104.63 0 008.759-3.56c2.25-1.04 4.489-2.542 6.91-3.107a13.557 13.557 0 01-1.749-4.682c-1.248-7.371 4.168-14.835 11.613-15.594.493-.049.86.12 1.115.396 4.879-.32 10.01 2.114 13.082 6.039 4.43-1.548 8.996-2.812 13.513-4.063.26-.073.48-.046.679.014-8.677-11.871-21.488-28.145-37.197-16.37-1.253.939-2.512-.868-1.78-2.002C57.174 10.016 44.82.316 29.772 4.412 11.378 9.418 7.649 31.03 16.213 46.024c.365.64.327 1.24.063 1.707.247.784-.094 1.734-1.127 1.62-10.57-1.183-12.808 9.61-10.1 17.6zm33.66 13.146c5.028-.501 9.297-5.044 8.974-10.255-.345-5.555-5.15-8.773-10.084-9.877a.866.866 0 01-.473-.277c-5.409-1.04-11.012 5.431-11.177 10.492-.206 6.314 7.142 10.474 12.76 9.917zm39.703-17.657c5.882-.515 11.64-6.06 10.153-12.21-1.286-5.32-7.111-8.87-12.535-9.232-.12.083-.24.167-.393.216-4.828 1.524-9.174 5.219-9.088 10.733.095 6.127 5.938 11.013 11.863 10.493zM.402 56.537c1.238-5.734 5.964-10.483 11.606-10.371-9.239-15.4-3.275-37.859 14.087-44.319 16.098-5.99 33.797 3.218 40.311 18.52 5.385-4.337 13.407-4.224 19.652-1.66 9.172 3.767 15.145 12.696 19.777 21.026.608 1.096-.597 1.956-1.493 1.511.169.576-.04 1.286-.772 1.558-4.127 1.547-8.297 3.1-12.515 4.408.221.475.425.963.587 1.466 2.512 7.812-4.478 15.48-11.907 16.661-5.196.829-10.39-1.56-13.478-5.615-1.924 2.102-4.996 3.374-7.513 4.601-2.634 1.284-5.33 2.422-8.062 3.481a11.57 11.57 0 01.258 3.813c-.834 8.045-8.648 13.143-16.327 11.515-3.217-.681-6.131-2.289-8.276-4.488-4.346 1.26-8.386 3.054-12.402 5.145-1.054.55-2.033-.057-2.39-.895-.775.723-2.273.835-2.904-.274C4.277 74.952-1.596 65.785.402 56.537z" fill="#8DD9E5"/><path d="M36.153 72.043c1.026.269 2.274-.027 2.837-.991.856-1.47-.38-3.414-2.092-3.193-.229.031-.377-.106-.443-.283-.867.276-1.589.864-1.892 1.847-.381 1.236.394 2.306 1.59 2.62zm-4.031-2.6c.378-2.621 3.313-5.27 6.031-4.16.5.204.749.712.731 1.177 1.704.279 3.033 1.966 2.854 3.994-.25 2.84-2.795 4.485-5.504 4.042-2.471-.404-4.49-2.427-4.112-5.053zM43.754 31.03c3.956-1.04 7.781-2.396 11.609-3.835a1.675 1.675 0 01-.24-.472c-2.49-7.746-10.055-14.62-18.532-14.157 2.645 6.04 5.164 12.185 7.163 18.464zM34.14 9.476c10.745-.177 21.151 5.406 24.081 16.39.165.614-.004 1.115-.332 1.46.04.31-.06.639-.368.826-4.512 2.76-9.41 4.684-14.405 6.368-.883.298-1.666-.352-1.97-1.119-2.82-7.135-5.433-14.327-8.467-21.379-.495-1.15.066-2.523 1.46-2.546zM32.66 35.35c.392-.707-1.29-4.276-1.51-5.016-1.47-4.951-3.05-9.924-4.169-14.976-7.2 6.653-7.947 14.915-6.08 24.142 2.533-.835 5.075-1.649 7.591-2.533.82-.288 3.73-.828 4.167-1.616zm-6.09-22.745l.015-.004c.293-.599 1.184-.896 1.52-.131 1.721 3.917 3.039 8.003 4.374 12.064 1.015 3.086 3.648 7.814 3.406 10.965-.131 1.705-.468 2.037-1.921 2.908-3.678 2.205-9.145 3.04-13.188 4.371-.964.317-1.642-.304-1.826-1.069a1.408 1.408 0 01-.576-.529c-5.756-9.461-.256-22.87 8.196-28.575z" fill="#8DD9E5"/>
    </symbol>

    <symbol id="arrow-down" viewBox="0 0 71 200">
        <path d="M58.613 181.795a3.023 3.023 0 01-.69-1.539c-.08-.549-.163-1.097-.244-1.646-.25 4.536-.693 8.936-1.323 13.219a305.514 305.514 0 007.791-10.456l-4.123 1.442c-.55.192-1.067-.321-1.41-1.02zM25.09 73.808c4.305 13.38 12.374 8.858 12.861-.276.313-5.879-1.339-13.248-3.156-19.527-7.601-2.13-14.174 5.91-9.705 19.803zm27.698 122.784c2.092-10.381 2.955-21.518 2.615-33.575-.057-2.083 2.1-1.337 2.422.826.568 3.845 1.138 7.687 1.707 11.53 5.396-14.332 5.758-33.411 3.137-53.286-2.697-20.464-8.314-52.33-22.924-65.26a14.565 14.565 0 00-2.328-1.69c2.5 8.969 4.306 19.28 1.903 25.93-1.964 5.438-7 7.595-11.79 2.122-12.362-14.12-4.582-36.162 5.9-33.578C26.557 29.032 14.13 11.783.84 2.841-.079 2.22-.112.151.85.684c14.49 8.052 28.09 27.543 35.197 49.898 14.978 7.06 22.734 37.232 26.57 56.994 5 25.736 6.138 51.811-.812 70.408l6.423-2.247c.98-.343 2.432 2.25 1.682 3.348a314.354 314.354 0 01-15.06 20.331c-.813 1.008-2.365-1.328-2.062-2.825z" fill="#8DD9E5"/><path d="M58.613 181.795a3.023 3.023 0 01-.69-1.539c-.08-.549-.163-1.097-.244-1.646-.25 4.536-.693 8.936-1.323 13.219a305.514 305.514 0 007.791-10.456l-4.123 1.442c-.55.192-1.067-.321-1.41-1.02zM25.09 73.808c4.305 13.38 12.374 8.858 12.861-.276.313-5.879-1.339-13.248-3.156-19.527-7.601-2.13-14.174 5.91-9.705 19.803zm27.698 122.784c2.092-10.381 2.955-21.518 2.615-33.575-.057-2.083 2.1-1.337 2.422.826.568 3.845 1.138 7.687 1.707 11.53 5.396-14.332 5.758-33.411 3.137-53.286-2.697-20.464-8.314-52.33-22.924-65.26a14.565 14.565 0 00-2.328-1.69c2.5 8.969 4.306 19.28 1.903 25.93-1.964 5.438-7 7.595-11.79 2.122-12.362-14.12-4.582-36.162 5.9-33.578C26.557 29.032 14.13 11.783.84 2.841-.079 2.22-.112.151.85.684c14.49 8.052 28.09 27.543 35.197 49.898 14.978 7.06 22.734 37.232 26.57 56.994 5 25.736 6.138 51.811-.812 70.408l6.423-2.247c.98-.343 2.432 2.25 1.682 3.348a314.354 314.354 0 01-15.06 20.331c-.813 1.008-2.365-1.328-2.062-2.825z" fill="#5879E8"/>
    </symbol>

    <symbol id="arrow-down-2" viewBox="0 0 57 72">
        <path d="M36.5791 23.6428C30.145 21.1706 22.1937 20.2258 15.9018 23.3079C16.5796 28.5986 19.255 33.9842 21.9221 38.1104C26.4019 45.0438 36.7224 51.5909 44.6573 45.1035C53.596 37.7956 44.3798 26.6404 36.5791 23.6428ZM31.4229 48.9365C22.5214 46.0228 15.1508 34.9279 13.7712 24.5557C13.2347 24.9273 12.7092 25.3226 12.2088 25.7693C-0.569081 37.1742 6.25509 55.3832 12.2205 68.1478C12.2932 68.3032 12.32 68.4559 12.3257 68.6049L12.6343 68.7596C12.1654 66.0334 12.0845 63.3622 12.4002 60.5009C12.5568 59.0756 14.8464 59.1148 14.6886 60.5476C14.3077 63.9958 14.5072 67.1812 15.3457 70.5562C15.5966 71.566 14.4766 72.1789 13.6281 71.7701C9.11124 69.5943 4.79357 67.1542 0.613003 64.4137C-0.611996 63.6114 0.526191 61.8342 1.81923 62.5088C4.1492 63.724 6.48018 64.9402 8.81031 66.1564C3.18219 53.4645 -1.36715 38.1966 8.58516 26.3169C9.99131 24.6377 11.6828 23.2689 13.5654 22.1866C13.4297 19.007 13.9038 15.9619 15.1336 13.3234C22.6353 -2.77613 43.5301 -1.25656 56.2719 6.99289C57.2271 7.61055 56.3259 9.04035 55.3298 8.48111C42.8999 1.48632 21.2728 -0.860465 16.2863 16.665C15.8778 18.0992 15.7196 19.5896 15.7423 21.1038C26.1864 16.6063 40.9191 19.7996 47.383 28.7246C55.7158 40.228 44.6707 53.2742 31.4229 48.9365Z" fill="#8DD9E5"/>
        <path d="M36.5791 23.6428C30.145 21.1706 22.1937 20.2258 15.9018 23.3079C16.5796 28.5986 19.255 33.9842 21.9221 38.1104C26.4019 45.0438 36.7224 51.5909 44.6573 45.1035C53.596 37.7956 44.3798 26.6404 36.5791 23.6428ZM31.4229 48.9365C22.5214 46.0228 15.1508 34.9279 13.7712 24.5557C13.2347 24.9273 12.7092 25.3226 12.2088 25.7693C-0.569081 37.1742 6.25509 55.3832 12.2205 68.1478C12.2932 68.3032 12.32 68.4559 12.3257 68.6049L12.6343 68.7596C12.1654 66.0334 12.0845 63.3622 12.4002 60.5009C12.5568 59.0756 14.8464 59.1148 14.6886 60.5476C14.3077 63.9958 14.5072 67.1812 15.3457 70.5562C15.5966 71.566 14.4766 72.1789 13.6281 71.7701C9.11124 69.5943 4.79357 67.1542 0.613003 64.4137C-0.611996 63.6114 0.526191 61.8342 1.81923 62.5088C4.1492 63.724 6.48018 64.9402 8.81031 66.1564C3.18219 53.4645 -1.36715 38.1966 8.58516 26.3169C9.99131 24.6377 11.6828 23.2689 13.5654 22.1866C13.4297 19.007 13.9038 15.9619 15.1336 13.3234C22.6353 -2.77613 43.5301 -1.25656 56.2719 6.99289C57.2271 7.61055 56.3259 9.04035 55.3298 8.48111C42.8999 1.48632 21.2728 -0.860465 16.2863 16.665C15.8778 18.0992 15.7196 19.5896 15.7423 21.1038C26.1864 16.6063 40.9191 19.7996 47.383 28.7246C55.7158 40.228 44.6707 53.2742 31.4229 48.9365Z" fill="#5879E8"/>
    </symbol>

    <symbol id="icon-phone" viewBox="0 0 15 15">
        <path d="M11.404 9.923c-.49-.484-1.102-.484-1.589 0-.371.368-.743.736-1.108 1.111-.1.103-.184.125-.306.056-.24-.13-.496-.237-.727-.38-1.077-.678-1.98-1.549-2.778-2.529-.397-.487-.75-1.008-.996-1.595-.05-.119-.04-.197.056-.293.372-.36.734-.728 1.1-1.096.508-.512.508-1.111-.004-1.626-.29-.294-.58-.58-.87-.874-.3-.3-.597-.603-.9-.9-.49-.477-1.102-.477-1.589.004C1.32 2.169.96 2.547.58 2.909a1.81 1.81 0 00-.568 1.22c-.06.778.131 1.511.4 2.226.549 1.48 1.385 2.794 2.4 3.998a14.854 14.854 0 004.92 3.85c.86.417 1.753.739 2.724.792.668.038 1.249-.131 1.714-.652.318-.356.677-.68 1.014-1.021.5-.506.503-1.117.006-1.617-.593-.596-1.189-1.19-1.785-1.782zm-.597-2.488l1.152-.197A5.147 5.147 0 0010.52 4.46a5.12 5.12 0 00-2.934-1.463l-.162 1.158a3.972 3.972 0 012.272 1.133c.587.586.971 1.33 1.111 2.147zm1.802-5.007A8.493 8.493 0 007.739 0l-.162 1.158a7.364 7.364 0 014.208 2.098 7.359 7.359 0 012.063 3.98L15 7.038a8.555 8.555 0 00-2.391-4.61z"/>
    </symbol>
    <symbol id="cloud" viewBox="0 0 91 62">
        <path d="M87.383 37.222c-1.372 8.972-16.11 12.975-21.86 5.982-1.225-1.49-3.683.447-2.655 2.06.333.526.709.984 1.107 1.41 2.436 7.01-8.409 11.888-13.868 11.771-7.29-.154-12.489-5.792-13.307-12.836a1.87 1.87 0 00-.318-.848l.044-.208c.21-1.455-1.83-2.127-2.256-.625l-.066.208c-.48.237-.827.719-.809 1.473.007.22.038.43.053.648-2.73 6.59-8.668 11.443-16.258 10.526-9.568-1.155-14.15-13.176-4.268-18.111 1.519-.76.453-3.18-1.141-2.726-5.704 1.618-10.723-4.625-6.011-10.201 2.718-3.218 7.56-2.824 11.104-1.731 1.007.31 1.452-1.067.678-1.62-.156-.111-.322-.196-.481-.298.332-.34.374-.913-.16-1.268-7.377-4.925-4.108-14.255 4.128-15.504 6.104-.927 11.922 2.041 14.32 7.76.292.697.877.78 1.386.544.37.88 1.955.905 2.24-.187C41.553 3.587 54.597.782 62.652 5.472c8.018 4.668 9.044 14.94 3.942 22.139-1.023 1.443 1.261 3.198 2.438 1.893l.213-.272c.243-.004.483-.073.684-.243 7.004-5.958 19.032-2.103 17.453 8.233zM72.22 24.221c3.076-8.351-.913-18.536-9.382-22.437-8.706-4.007-22.541-1.307-25.612 8.54C34.505 2.111 21.665-.43 14.91 3.805c-5.381 3.373-7.593 12.347-3.197 16.502C6.397 19.882.988 23 .1 29.106c-.762 5.252 2.93 9.41 7.442 10.229-4.8 5.886-3.41 15.02 4.389 18.685 8.167 3.837 17.98.024 22.397-7.355 2.623 7.528 10.46 12.38 18.716 11.143 5.886-.88 14.202-6.554 14.074-12.883 3.587 1.618 8.109 1.33 11.947.479 6.386-1.414 11.27-5.67 11.88-12.494.944-10.551-10.518-17.138-18.724-12.69z" fill="#FDFAF5"/>
    </symbol>

    <symbol id="girl" viewBox="0 0 135 141">
        <path d="M103.674 116.035a20.012 20.012 0 01-4.108 1.718l-.07-.142c-.08-.112-.177-.214-.262-.323.71-1.121 1.352-2.289 2.284-3.251 1.034-1.066 2.982-2.412 4.543-1.7 2.31 1.055-1.455 3.174-2.387 3.698zm-47.548-8.389c4.48-11.664 8.446-24.84 8.273-37.422 2.841.261 5.648.084 8.217-.642a19.155 19.155 0 004.566-1.983l.05.115c6.407 11.467 14.471 21.496 23.816 30.667-10.937 13.467-29.549 17.313-44.922 9.265zm3.089-40.567c-7.487-2.302-13.727-7.654-15.583-14.615 14.01 2.029 29.872-3.164 37.71-15.372 3.817 4.89 5.603 11.116 3.669 17.672-3.407 11.54-14.981 15.639-25.796 12.315zM43.979 42.504a16.887 16.887 0 014.2-6.877c-1.637 4.314-.806 9.76 2.667 12.846.672.597 1.582-.231 1.027-.948-3.352-4.333-3.868-9.256-1.187-13.999 1.485-1.044 3.12-1.903 4.85-2.59.792 5.135 3.03 10.835 6.54 14.514.54.566 1.519-.094 1.129-.802-1.305-2.377-2.854-4.563-3.973-7.051-1.042-2.317-1.725-4.712-2.354-7.152 1.65-.56 3.367-.978 5.103-1.271 2.239.987 4.137 2.163 5.849 4.056 1.592 1.761 2.671 3.853 4.08 5.739.353.47 1.245.01 1.035-.55-1.387-3.685-4.564-7.823-8.446-9.574 2.052-.208 4.1-.263 6.067-.17.124.236.323.443.618.574 3.386 1.507 6.475 3.707 8.933 6.396C71.974 48.89 57.54 50.71 43.383 51.381c-.541-2.757-.408-5.742.596-8.877zm1.182-6.681a19.138 19.138 0 00-2.035 3.285c-.337-.242-.647-.512-.882-.92-.47-.817-.625-1.838-.143-2.687.794-1.4 2.775-1.633 4.04-.823a17.84 17.84 0 00-.98 1.145zm-20.65 6.453c3.53-1.203 6.324-3.824 7.606-7.49.956-2.735.56-5.54 3.585-7.395 1.298-.796 3.085-1.03 4.562-.893 3.866.36 6.373 2.89 8.15 6.089-.42.337-.829.681-1.214 1.04-.047-.063-.092-.127-.163-.18-2.084-1.543-5.389-.844-6.473 1.594-.724 1.63.047 4.552 1.758 5.449-5.088 4.384-11.933 4.779-17.81 1.786zm48.597-14.84c-.404-.17-.812-.33-1.225-.474-.518-.18-.922-.028-1.175.268a16.976 16.976 0 00-2.145-.458.54.54 0 00.36-.381c.388-1.279 1.772-2.599 3.219-1.96 1.182.524 1.418 1.93.966 3.005zm5.15-10.463c.99.201 1.934.5 2.86.796 1.64.521 3.223 1.026 4.902.931-2.206 4.177-4.411 9.304-9.619 9.605a.889.889 0 00-.722.42c-.334-.192-.665-.39-1.008-.567.98-1.853.057-4.516-1.899-5.318-2.206-.904-5.183.848-5.018 3.36.015.221.137.39.294.493-.46-.059-.928-.096-1.398-.122-.629-6.627 5.147-10.912 11.608-9.599zM71.06 124.5c-.022.258-.046.516-.067.775a.662.662 0 00-.28.035c-1.501.571-2.99 1.135-4.592 1.358-1.313.182-4.283.428-5.307-.582-.85-.841.743-1.138 1.474-1.315a16.74 16.74 0 012.446-.402c1.872-.17 3.713-.042 5.556.323a.907.907 0 00.77-.192zM38.658 67.836c-.314-.062-.63.112-.817.377-1.385-.234-3.049-.264-3.866-1.563-.688-1.093-.338-2.786.767-3.48 1.101-.693 2.774-.317 3.576.664.854 1.048.92 2.796.34 4.002zm61.268-19.404c-.094-1.268.685-2.491 1.991-2.657 1.361-.172 2.822.804 3.059 2.178.226 1.311-.474 2.548-1.54 3.244-1.48-.421-3.377-.949-3.51-2.765zm8.32 63.049c-1.427-1.485-3.851-1.233-5.554-.43-2.055.968-3.541 2.892-4.632 4.871-.911-.976-1.883-1.911-2.745-2.905-1.149-1.324-2.216-2.744-3.423-4.02a38.843 38.843 0 0011.571-10.105c.272-.354.216-1.04-.121-1.344-7.401-6.66-13.816-14.383-19.263-22.721 9.609-2.638 18.748-12.042 20.286-21.972 1.856-1.105 2.987-3.35 2.497-5.507-.528-2.323-2.949-3.896-5.284-3.59-2.256.294-3.775 2.393-3.685 4.618.107 2.669 2.367 3.681 4.644 4.063l.026.088-.012.019c-2.017 4.925-3.872 9.306-7.642 13.208-3.342 3.457-7.394 5.728-11.712 7.703a134.235 134.235 0 01-4.033-6.771 1.104 1.104 0 00-.212-.27c4.786-3.553 8.128-9.152 8.79-15.045.931-8.277-3.43-16.63-10.16-21.433 5.89-1.117 8.091-7.363 11.023-12.057.53-.852-.404-1.642-1.221-1.32-2.074.814-4.276.023-6.437-.754-1.21-.436-2.408-.867-3.562-1.011-2.652-.33-5.456.1-7.781 1.462-3.559 2.083-5.612 6.36-4.41 10.284-5.473.061-11.38 2.106-15.804 5.298-1.19-4.899-6.95-7.935-11.763-7.052-2.84.52-5.013 2.165-6.06 4.856-.903 2.326-.92 4.75-2.336 6.905-1.712 2.603-4.318 4.013-7.323 4.51-.79.132-.903 1.25-.278 1.651 5.99 3.842 14.163 4.504 20.016.457-1.423 5.692-.443 11.979 3.106 16.75 3.966 5.332 11.085 9.114 18.2 10.146a179.411 179.411 0 00-1.092 6.104c-4.16.153-8.088.096-12.117-1.286-3.95-1.354-6.77-3.728-9.907-6.217 1.4-1.845 1.641-4.238.182-6.155-1.436-1.886-4.253-2.475-6.323-1.31-1.908 1.072-2.737 3.61-1.889 5.616.993 2.348 3.898 3.043 6.231 2.649 4.531 7.06 15.438 10.67 23.509 8.618-.594 3.64-1.188 7.282-2.03 10.885-1.503 6.434-3.502 12.716-5.872 18.88-.166.433.065 1.056.473 1.28 5.79 3.184 12.03 4.777 18.207 4.878-.526 3.018-.868 6.062-1.144 9.112a.869.869 0 00-.36-.16c-2.264-.478-14.215-1.637-12.466 3.477.67 1.958 3.359 2.341 5.113 2.427 2.796.138 5.726-.675 7.863-2.51.59.442 1.709.196 1.788-.789.312-3.847.567-7.703.512-11.563a38.26 38.26 0 0016.88-4.264c.88 1.682 2.1 3.222 3.301 4.672 1.346 1.624 2.747 3.425 4.468 4.662.327.236.64.221.89.082.15.109.348.161.589.11 2.375-.512 12.214-3.898 8.488-7.78z" fill="#FEB9CC"/><path d="M57.917 58.008c-.08-1.449-1.742-2.428-3.06-1.782-.664.326-1.116 1.104-.898 1.824-.074.18-.139.367-.192.567-.186.693.186 1.233.802 1.511 1.435.649 3.439-.467 3.348-2.12zm22.487-9.882c-.648-1.163-2.566-1.84-3.568-.704a1.5 1.5 0 00-.255.418c-.213.248-.38.54-.475.857-.477 1.573.988 2.838 2.48 2.67 1.552-.175 2.624-1.796 1.818-3.241zm-9.784 10.64c.107-.395.198-.74-.078-1.088a2.005 2.005 0 00-.57-.484c-.928-.535-2.124-.282-2.69.63-.259.418.227 1.025.68.737a1.21 1.21 0 011.128-.079c-.19.624-.4 1.277-.413 1.906-.015.666.954 1.026 1.3.398.339-.615.462-1.347.644-2.02zm2.064 2.455c-.972 1.927-3.236 3.125-5.282 1.936-.464-.27-.85.372-.44.693 2.223 1.742 6.18.835 6.979-2.05.201-.725-.888-1.31-1.257-.579z" fill="#FEB9CC"/>
    </symbol>

    <symbol id="rocket" viewBox="0 0 135 68">
        <path d="M90.751 8.73c3.748 2.938 7.279 6.101 10.672 9.427-3.89.688-7.78 1.036-11.766 1.145-.634.015-1.04.35-1.262.779a86.945 86.945 0 00-12.889-9.19c4.89-3.985 8.935-7.108 15.245-2.16zm1.713 20.151c.12.126.244.222.371.301l-.002.007c-1.159 8.468-2.31 16.05-9.677 21.147h-.008c-16.12 2.995-32.744 1.848-47.209-6.415-4.1-2.34-7.946-5.115-11.556-8.196 7.89-8.478 9.778-20.849 6.804-31.796l-.043-.109c22.38-2.016 45.212 7.995 61.32 25.061zm7.828 1.682a264.529 264.529 0 01-5.108 22.558c-2.153-1.277-4.313-2.543-6.537-3.69 4.967-4.466 6.535-12.59 7.195-19.014 1.483.067 2.966.113 4.45.146zm3.172 6.125c6.453-2.414 10.798 5.62 15.195 9.768-2.192 2.047-4.532 4.079-7.478 4.851-4.087 1.072-7.786-.68-10.961-3.16a.75.75 0 00-.576-.15 227.09 227.09 0 002.577-11.51c.296.275.724.396 1.243.201zm20.287 4.45c1.906 2.762 3.745 5.309 6.238 7.353-4.491 2.899-7.897 7.425-13.279 8.742-6.683 1.636-13.385-.984-17.93-5.882.188-.698.36-1.398.54-2.099 2.16 3.604 6.3 5.438 10.468 5.184 4.899-.302 8.78-3.738 12.144-6.986.721-.698.474-1.81-.3-2.328-5.964-3.994-10.086-14.498-18.918-11.156h-.005l.042-.219.288-.103c8.807-4.132 15.666.183 20.712 7.493zM4.215 12.784c7.4-4.554 15.234-7.317 23.175-8.522-.016.219-.006.447.062.697 2.874 10.497.411 19.948-5.144 28.941-6.877-6.245-12.87-13.584-18.093-21.116zM81.85 54.106c2.102 2.11 7.252 5.952 7.886 8.84.48 2.174.877 1.2-1.447 1.625-1.842.338-4.43 0-6.305 0-3.318 0-7.246.578-10.507 0-3.259-.576-5.022-1.712-6.346-4.902-.528-1.27-.727-2.784-1.053-4.174 5.618.118 11.398-.65 17.302-2.462-.009.352.126.728.47 1.073zM73.403 9.702C50.95-2.554 23.685-4.265.871 10.767c-.744.491-1.171 1.565-.622 2.38C14.633 34.503 36.581 53.91 62.031 55.418c-.235 3.695-.005 9.582 3.51 11.64 2.26 1.322 5.584.779 8.037.78h11.559c2.81 0 8.8 1.253 8.846-3.23.043-4.253-6.794-10.102-9.844-12.56a12.307 12.307 0 002.886-1.37c2.555 2.333 5.373 4.24 8.34 6.024.836.505 1.927.021 2.192-.892.146-.506.274-1.014.417-1.519 3.693 4.488 9.185 6.981 15.133 6.935 9.3-.072 13.308-7.507 21.043-11.052 1.208-.555 1.056-2.407 0-3.006-6.837-3.869-8.834-12.43-15.7-16.33-4.721-2.683-10.12-2.797-15.01-.91.023-.141.052-.28.074-.42.158-.955-.39-1.872-1.438-1.89-2.203-.035-4.406-.082-6.61-.062a1.669 1.669 0 00-.48-1.201A87.83 87.83 0 0090.9 22.32c4.828.001 9.546-.571 14.281-1.587 1.232-.264 1.524-1.881.716-2.719-3.552-3.684-7.25-7.206-11.2-10.461-2.34-1.928-5.167-4.853-8.118-5.683-4.89-1.374-10.163 3.66-13.176 7.832z" fill="#FFD787"/><path d="M50.944 16.223c4.583 2.346 6.001 7.822 4.714 12.521-.564 2.06-1.966 4.947-4.219 5.712-2.623.89-6.125-.79-8.004-2.495-3.33-3.023-3.79-7.64-2.84-11.796 1.956-3.984 6.137-6.097 10.35-3.942zm-13.59 2.994c-.178.609.038 1.156.424 1.548-5.738 13.029 15.715 25.76 20.945 10.368 2.298-6.762.17-14.968-6.633-18.154-5.71-2.673-12.923.028-14.736 6.238z" fill="#FFD787"/>
    </symbol>

    <symbol id="arrow-left-1" viewBox="0 0 182 61">
        <path d="M13.884 44.708c.403.308.931.447 1.482.282.484-.144.967-.287 1.45-.432A113.755 113.755 0 006.07 52.915a574.627 574.627 0 016.661-16.642c-.03 2.276-.058 4.553-.087 6.83-.012.91.56 1.432 1.241 1.605zm99.891-2.325c-12.419.063-10.819-14.126-3.276-19.265 4.854-3.306 11.498-4.411 17.27-4.743 3.862 10.279-1.101 23.94-13.994 24.008zM3.04 60.526c8.152-8.13 17.276-14.796 27.5-20.118 1.767-.922.552-3.77-1.354-3.203-3.386 1.013-6.77 2.022-10.154 3.032 10.571-14.953 26.506-24.713 43.922-30.42 17.932-5.88 46.242-12.926 61.093 2.558a16.71 16.71 0 012.056 2.645c-8.219.617-17.377 2.915-22.31 9.703-4.034 5.55-4.473 14.084 1.432 18.564 15.237 11.565 31.639-10.662 26.609-25.005 19.167.273 37.052 10.423 48.191 25.869.771 1.069 2.519.12 1.809-1.053-10.719-17.663-30.807-28.472-51.531-28.24C120.285-4.009 92.815-.963 75.162 2.881c-22.99 5.002-45.213 15.913-58.946 35.24.046-3.547.09-7.094.137-10.641.021-1.624-2.554-2.53-3.273-.884A589.33 589.33 0 00.103 58.826c-.625 1.695 1.76 2.875 2.937 1.701z" fill="#8DD9E5"/><path d="M13.884 44.708c.403.308.931.447 1.482.282.484-.144.967-.287 1.45-.432A113.755 113.755 0 006.07 52.915a574.627 574.627 0 016.661-16.642c-.03 2.276-.058 4.553-.087 6.83-.012.91.56 1.432 1.241 1.605zm99.891-2.325c-12.419.063-10.819-14.126-3.276-19.265 4.854-3.306 11.498-4.411 17.27-4.743 3.862 10.279-1.101 23.94-13.994 24.008zM3.04 60.526c8.152-8.13 17.276-14.796 27.5-20.118 1.767-.922.552-3.77-1.354-3.203-3.386 1.013-6.77 2.022-10.154 3.032 10.571-14.953 26.506-24.713 43.922-30.42 17.932-5.88 46.242-12.926 61.093 2.558a16.71 16.71 0 012.056 2.645c-8.219.617-17.377 2.915-22.31 9.703-4.034 5.55-4.473 14.084 1.432 18.564 15.237 11.565 31.639-10.662 26.609-25.005 19.167.273 37.052 10.423 48.191 25.869.771 1.069 2.519.12 1.809-1.053-10.719-17.663-30.807-28.472-51.531-28.24C120.285-4.009 92.815-.963 75.162 2.881c-22.99 5.002-45.213 15.913-58.946 35.24.046-3.547.09-7.094.137-10.641.021-1.624-2.554-2.53-3.273-.884A589.33 589.33 0 00.103 58.826c-.625 1.695 1.76 2.875 2.937 1.701z" fill="#5879E8"/>
    </symbol>

    <symbol id="arrow-left-1-table" viewBox="0 0 135 45">
        <path d="M12.479 24.9374C12.7357 25.213 13.1032 25.3774 13.5233 25.3177C13.8918 25.2661 14.2601 25.2157 14.6289 25.1629C11.6039 26.642 8.67489 28.305 5.82866 30.1498C8.04055 26.2388 10.3038 22.3597 12.633 18.5211C12.3433 20.2134 12.0549 21.906 11.7652 23.5984C11.6497 24.2749 12.0043 24.7297 12.479 24.9374ZM85.3942 34.7103C76.3557 33.3274 79.1903 22.9432 85.2809 19.9839C89.2004 18.0804 94.1617 18.0227 98.3982 18.44C99.9967 26.541 94.7787 36.1454 85.3942 34.7103ZM2.72941 35.4711C9.61582 30.3548 17.0354 26.4401 25.098 23.6532C26.4909 23.1703 25.9426 20.909 24.4899 21.1113C21.9083 21.476 19.3284 21.8384 16.7484 22.2008C26.1975 12.2806 38.9346 6.84624 52.2719 4.60113C66.0049 2.28748 87.4223 0.299915 96.3985 13.5433C96.8707 14.2392 97.2597 14.9806 97.5818 15.7502C91.5323 15.2631 84.6021 15.92 80.2152 20.4075C76.6281 24.0769 75.3038 30.3828 79.0705 34.3997C88.7891 44.7691 103.334 30.1025 101.365 18.8399C115.272 21.2512 127.082 30.8709 133.364 43.6588C133.799 44.5437 135.182 44.0379 134.803 43.0832C129.089 28.6919 115.754 18.3271 100.655 16.1132C95.5921 0.905312 75.2569 0.0101343 61.9667 0.840615C44.6586 1.91821 27.2131 7.4853 14.9505 20.299C15.4017 17.6625 15.8517 15.0257 16.3029 12.3892C16.5097 11.1823 14.7438 10.2103 14.0273 11.354C9.40078 18.7289 4.98865 26.2291 0.794096 33.8649C0.139972 35.056 1.73618 36.2098 2.72941 35.4711Z" fill="#8DD9E5"/>
        <path d="M12.479 24.9374C12.7357 25.213 13.1032 25.3774 13.5233 25.3177C13.8918 25.2661 14.2601 25.2157 14.6289 25.1629C11.6039 26.642 8.67489 28.305 5.82866 30.1498C8.04055 26.2388 10.3038 22.3597 12.633 18.5211C12.3433 20.2134 12.0549 21.906 11.7652 23.5984C11.6497 24.2749 12.0043 24.7297 12.479 24.9374ZM85.3942 34.7103C76.3557 33.3274 79.1903 22.9432 85.2809 19.9839C89.2004 18.0804 94.1617 18.0227 98.3982 18.44C99.9967 26.541 94.7787 36.1454 85.3942 34.7103ZM2.72941 35.4711C9.61582 30.3548 17.0354 26.4401 25.098 23.6532C26.4909 23.1703 25.9426 20.909 24.4899 21.1113C21.9083 21.476 19.3284 21.8384 16.7484 22.2008C26.1975 12.2806 38.9346 6.84624 52.2719 4.60113C66.0049 2.28748 87.4223 0.299915 96.3985 13.5433C96.8707 14.2392 97.2597 14.9806 97.5818 15.7502C91.5323 15.2631 84.6021 15.92 80.2152 20.4075C76.6281 24.0769 75.3038 30.3828 79.0705 34.3997C88.7891 44.7691 103.334 30.1025 101.365 18.8399C115.272 21.2512 127.082 30.8709 133.364 43.6588C133.799 44.5437 135.182 44.0379 134.803 43.0832C129.089 28.6919 115.754 18.3271 100.655 16.1132C95.5921 0.905312 75.2569 0.0101343 61.9667 0.840615C44.6586 1.91821 27.2131 7.4853 14.9505 20.299C15.4017 17.6625 15.8517 15.0257 16.3029 12.3892C16.5097 11.1823 14.7438 10.2103 14.0273 11.354C9.40078 18.7289 4.98865 26.2291 0.794096 33.8649C0.139972 35.056 1.73618 36.2098 2.72941 35.4711Z" fill="#5879E8"/>
    </symbol>

    <symbol id="arrow-left-2" viewBox="0 0 130 118">
        <path d="M85.535 43.673c-9.895-7.837-23.26-13.782-35.901-11.698-1.67 9.742.096 20.724 2.526 29.47C56.24 76.14 70.72 93.286 88.063 86.05c19.537-8.153 9.468-32.875-2.528-42.376zM62.903 85.736C48.941 75.79 42.06 52.168 45.243 33.043c-1.136.37-2.266.79-3.38 1.312-28.445 13.353-26.352 49.292-22.823 75.12.043.315.008.6-.063.867l.455.44c.651-5.084 1.95-9.862 4.043-14.764 1.042-2.442 5.016-1.143 3.968 1.312-2.523 5.907-3.892 11.66-4.248 18.092-.107 1.925-2.391 2.41-3.651 1.23A207.327 207.327 0 01.798 96.624c-1.705-2.08 1.239-4.619 3.131-2.729l10.234 10.22c-2.98-25.518-2.689-55.023 21.081-70.735 3.36-2.221 7.049-3.74 10.917-4.647 1.477-5.708 3.946-10.85 7.514-14.867 21.769-24.508 57.411-10.594 75.198 10.87 1.334 1.608-1.009 3.658-2.446 2.132-17.92-19.073-54.393-34.846-72.542-6.46-1.486 2.322-2.565 4.879-3.342 7.575 20.65-2.363 44.637 11.208 51.105 30.498 8.34 24.864-17.966 42.057-38.745 27.255z" fill="#8DD9E5"/><path d="M85.535 43.673c-9.895-7.837-23.26-13.782-35.901-11.698-1.67 9.742.096 20.724 2.526 29.47C56.24 76.14 70.72 93.286 88.063 86.05c19.537-8.153 9.468-32.875-2.528-42.376zM62.903 85.736C48.941 75.79 42.06 52.168 45.243 33.043c-1.136.37-2.266.79-3.38 1.312-28.445 13.353-26.352 49.292-22.823 75.12.043.315.008.6-.063.867l.455.44c.651-5.084 1.95-9.862 4.043-14.764 1.042-2.442 5.016-1.143 3.968 1.312-2.523 5.907-3.892 11.66-4.248 18.092-.107 1.925-2.391 2.41-3.651 1.23A207.327 207.327 0 01.798 96.624c-1.705-2.08 1.239-4.619 3.131-2.729l10.234 10.22c-2.98-25.518-2.689-55.023 21.081-70.735 3.36-2.221 7.049-3.74 10.917-4.647 1.477-5.708 3.946-10.85 7.514-14.867 21.769-24.508 57.411-10.594 75.198 10.87 1.334 1.608-1.009 3.658-2.446 2.132-17.92-19.073-54.393-34.846-72.542-6.46-1.486 2.322-2.565 4.879-3.342 7.575 20.65-2.363 44.637 11.208 51.105 30.498 8.34 24.864-17.966 42.057-38.745 27.255z" fill="#5879E8"/>
    </symbol>

    <symbol id="arrow-right-1" viewBox="0 0 140 105">
        <path d="M46.974 61.6c8.383 9.437 20.513 17.613 33.323 17.756 3.336-9.303 3.505-20.425 2.632-29.46-1.466-15.18-12.747-34.581-31.084-30.466-20.656 4.635-15.034 30.73-4.871 42.17zm29.594-37.49c12.023 12.218 14.696 36.678 8.239 54.959a29.187 29.187 0 003.556-.705c30.332-8.209 34.514-43.965 35.525-70.014.013-.317.097-.591.213-.842l-.372-.513c-1.524 4.894-3.633 9.374-6.546 13.838-1.45 2.224-5.138.254-3.68-1.981 3.511-5.38 5.858-10.807 7.326-17.08.44-1.877 2.774-1.958 3.81-.576a207.331 207.331 0 0114.982 22.98c1.318 2.344-2.023 4.332-3.558 2.142-2.768-3.945-5.536-7.893-8.303-11.841-1.498 25.648-6.91 54.653-33.048 65.997-3.694 1.604-7.59 2.458-11.558 2.68-2.446 5.365-5.77 10-9.983 13.336-25.694 20.353-58.377.46-72.166-23.768-1.034-1.815 1.63-3.427 2.78-1.674C18.117 92.942 51.297 114.81 74.1 90.01c1.867-2.03 3.374-4.36 4.607-6.88-20.746-1.26-42.01-18.791-45.03-38.912-3.894-25.934 24.998-38.296 42.89-20.11z" fill="#8DD9E5"/><path d="M46.974 61.6c8.383 9.437 20.513 17.613 33.323 17.756 3.336-9.303 3.505-20.425 2.632-29.46-1.466-15.18-12.747-34.581-31.084-30.466-20.656 4.635-15.034 30.73-4.871 42.17zm29.594-37.49c12.023 12.218 14.696 36.678 8.239 54.959a29.187 29.187 0 003.556-.705c30.332-8.209 34.514-43.965 35.525-70.014.013-.317.097-.591.213-.842l-.372-.513c-1.524 4.894-3.633 9.374-6.546 13.838-1.45 2.224-5.138.254-3.68-1.981 3.511-5.38 5.858-10.807 7.326-17.08.44-1.877 2.774-1.958 3.81-.576a207.331 207.331 0 0114.982 22.98c1.318 2.344-2.023 4.332-3.558 2.142-2.768-3.945-5.536-7.893-8.303-11.841-1.498 25.648-6.91 54.653-33.048 65.997-3.694 1.604-7.59 2.458-11.558 2.68-2.446 5.365-5.77 10-9.983 13.336-25.694 20.353-58.377.46-72.166-23.768-1.034-1.815 1.63-3.427 2.78-1.674C18.117 92.942 51.297 114.81 74.1 90.01c1.867-2.03 3.374-4.36 4.607-6.88-20.746-1.26-42.01-18.791-45.03-38.912-3.894-25.934 24.998-38.296 42.89-20.11z" fill="#5879E8"/>
    </symbol>

    <symbol id="arrow-right-2" viewBox="0 0 153 87">
        <path d="M137.967 48.03a1.257 1.257 0 00-1.073-.527l-1.2.045a90.454 90.454 0 009.987-4.416 481.03 481.03 0 01-8.622 11.813l1.516-5.39c.202-.718-.125-1.249-.608-1.526zM61.132 29.414c9.505 2.493 5.272 13.4-1.583 15.924-4.411 1.623-9.723 1.137-14.205.218-.771-8.929 5.92-18.73 15.788-16.142zm88.479 8.31c-7.956 4.767-16.342 8.177-25.286 10.298-1.545.367-1.221 2.871.356 2.813 2.803-.109 5.603-.215 8.404-.322-11.252 9.674-25.5 14.139-40.021 15.091-14.952.983-38.083.764-46.148-14.536a13.604 13.604 0 01-1.01-2.515c6.412 1.194 13.898 1.25 19.109-3.114 4.26-3.568 6.406-10.235 2.843-14.99-9.191-12.278-26.441 1.962-25.64 14.348-14.59-4.142-26.105-15.84-31.342-30.35-.362-1.005-1.9-.61-1.606.462 4.445 16.18 17.504 28.852 33.392 32.912 3.653 16.99 25.293 20.204 39.6 20.775 18.632.748 37.93-3.34 52.525-15.83l-2.361 8.397c-.361 1.281 1.414 2.527 2.313 1.37a492.99 492.99 0 0016.756-22.86c.837-1.214-.736-2.637-1.884-1.949z" fill="#8DD9E5"/><path d="M137.967 48.03a1.257 1.257 0 00-1.073-.527l-1.2.045a90.454 90.454 0 009.987-4.416 481.03 481.03 0 01-8.622 11.813l1.516-5.39c.202-.718-.125-1.249-.608-1.526zM61.132 29.414c9.505 2.493 5.272 13.4-1.583 15.924-4.411 1.623-9.723 1.137-14.205.218-.771-8.929 5.92-18.73 15.788-16.142zm88.479 8.31c-7.956 4.767-16.342 8.177-25.286 10.298-1.545.367-1.221 2.871.356 2.813 2.803-.109 5.603-.215 8.404-.322-11.252 9.674-25.5 14.139-40.021 15.091-14.952.983-38.083.764-46.148-14.536a13.604 13.604 0 01-1.01-2.515c6.412 1.194 13.898 1.25 19.109-3.114 4.26-3.568 6.406-10.235 2.843-14.99-9.191-12.278-26.441 1.962-25.64 14.348-14.59-4.142-26.105-15.84-31.342-30.35-.362-1.005-1.9-.61-1.606.462 4.445 16.18 17.504 28.852 33.392 32.912 3.653 16.99 25.293 20.204 39.6 20.775 18.632.748 37.93-3.34 52.525-15.83l-2.361 8.397c-.361 1.281 1.414 2.527 2.313 1.37a492.99 492.99 0 0016.756-22.86c.837-1.214-.736-2.637-1.884-1.949z" fill="#5879E8"/>
    </symbol>

    <symbol id="arrow-right-2-table" viewBox="0 0 108 37">
        <path d="M98.0406 17.4557C97.8397 17.2307 97.5487 17.0937 97.2123 17.1362C96.9173 17.1729 96.6224 17.2086 96.3272 17.2463C98.7648 16.0964 101.128 14.7974 103.429 13.3512C101.604 16.4671 99.7392 19.5566 97.8221 22.6129C98.0786 21.2558 98.3342 19.8986 98.5906 18.5416C98.693 17.9991 98.4165 17.6288 98.0406 17.4557ZM39.96 8.647C47.1571 9.87672 44.7389 18.1895 39.8313 20.4896C36.6731 21.969 32.7104 21.9508 29.3336 21.56C28.1777 15.0253 32.4874 7.37071 39.96 8.647ZM105.983 9.11287C100.408 13.137 94.4244 16.188 87.9446 18.3237C86.8252 18.6939 87.2294 20.5193 88.3924 20.3755C90.4593 20.116 92.5249 19.8582 94.5906 19.6004C86.8974 27.4539 76.6453 31.6574 65.9615 33.2888C54.9606 34.9701 37.8283 36.2891 30.8575 25.5234C30.4908 24.9577 30.1912 24.3565 29.9455 23.7335C34.769 24.2039 40.3129 23.7661 43.8828 20.215C46.8019 17.3113 47.9533 12.2581 45.0052 8.97912C37.3988 0.514704 25.5657 12.1181 26.9703 21.1997C15.9012 19.0796 6.61304 11.1907 1.78727 0.826359C1.4531 0.109149 0.341198 0.497792 0.629307 1.27039C4.97818 12.9166 15.4728 21.4245 27.4967 23.4015C31.3134 35.6958 47.5386 36.6807 58.1638 36.1862C72.0011 35.5453 86.015 31.2964 95.9979 21.1531C95.5984 23.2672 95.1998 25.3814 94.8002 27.4955C94.6172 28.4633 96.0129 29.2678 96.602 28.3576C100.406 22.4879 104.041 16.5147 107.504 10.4296C108.044 9.48041 106.787 8.53186 105.983 9.11287Z" fill="#8DD9E5"/>
        <path d="M98.0406 17.4557C97.8397 17.2307 97.5487 17.0937 97.2123 17.1362C96.9173 17.1729 96.6224 17.2086 96.3272 17.2463C98.7648 16.0964 101.128 14.7974 103.429 13.3512C101.604 16.4671 99.7392 19.5566 97.8221 22.6129C98.0786 21.2558 98.3342 19.8986 98.5906 18.5416C98.693 17.9991 98.4165 17.6288 98.0406 17.4557ZM39.96 8.647C47.1571 9.87672 44.7389 18.1895 39.8313 20.4896C36.6731 21.969 32.7104 21.9508 29.3336 21.56C28.1777 15.0253 32.4874 7.37071 39.96 8.647ZM105.983 9.11287C100.408 13.137 94.4244 16.188 87.9446 18.3237C86.8252 18.6939 87.2294 20.5193 88.3924 20.3755C90.4593 20.116 92.5249 19.8582 94.5906 19.6004C86.8974 27.4539 76.6453 31.6574 65.9615 33.2888C54.9606 34.9701 37.8283 36.2891 30.8575 25.5234C30.4908 24.9577 30.1912 24.3565 29.9455 23.7335C34.769 24.2039 40.3129 23.7661 43.8828 20.215C46.8019 17.3113 47.9533 12.2581 45.0052 8.97912C37.3988 0.514704 25.5657 12.1181 26.9703 21.1997C15.9012 19.0796 6.61304 11.1907 1.78727 0.826359C1.4531 0.109149 0.341198 0.497792 0.629307 1.27039C4.97818 12.9166 15.4728 21.4245 27.4967 23.4015C31.3134 35.6958 47.5386 36.6807 58.1638 36.1862C72.0011 35.5453 86.015 31.2964 95.9979 21.1531C95.5984 23.2672 95.1998 25.3814 94.8002 27.4955C94.6172 28.4633 96.0129 29.2678 96.602 28.3576C100.406 22.4879 104.041 16.5147 107.504 10.4296C108.044 9.48041 106.787 8.53186 105.983 9.11287Z" fill="#5879E8"/>
    </symbol>

    <symbol id="arrow-up" viewBox="0 0 66 174">
        <path d="M24.071 16.939c.387.297.647.753.63 1.305-.014.485-.027.969-.043 1.454a109.313 109.313 0 015.115-12.055 554.653 554.653 0 00-13.842 10.32c2.112-.593 4.225-1.184 6.337-1.778.845-.237 1.473.165 1.803.754zm22.615 93.309c-3.022-11.544-15.836-6.532-18.75 1.747-1.874 5.329-1.254 11.77-.132 17.211 10.529 1.032 22.018-6.971 18.882-18.958zM36.11 2.939c-5.547 9.59-9.49 19.716-11.91 30.53-.42 1.87-3.373 1.45-3.319-.46.104-3.396.205-6.789.305-10.181-11.3 13.53-16.434 30.749-17.428 48.335-1.025 18.109-.563 46.141 17.538 56.08.95.523 1.948.932 2.972 1.25-1.464-7.783-1.596-16.855 3.5-23.122 4.167-5.124 12.004-7.653 17.64-3.284 14.548 11.27-2.079 32.021-16.68 30.916 5.008 17.726 18.895 31.806 36.04 38.308 1.186.45.736 2.309-.531 1.941-19.106-5.56-34.153-21.522-39.078-40.819C5.106 127.822 1.128 101.564.33 84.221-.719 61.633 3.927 38.291 18.515 20.74l-9.873 2.771c-1.507.423-2.99-1.742-1.635-2.818A568.713 568.713 0 0133.797.636c1.423-1.002 3.114.92 2.313 2.303z" fill="#8DD9E5"/><path d="M24.071 16.939c.387.297.647.753.63 1.305-.014.485-.027.969-.043 1.454a109.313 109.313 0 015.115-12.055 554.653 554.653 0 00-13.842 10.32c2.112-.593 4.225-1.184 6.337-1.778.845-.237 1.473.165 1.803.754zm22.615 93.309c-3.022-11.544-15.836-6.532-18.75 1.747-1.874 5.329-1.254 11.77-.132 17.211 10.529 1.032 22.018-6.971 18.882-18.958zM36.11 2.939c-5.547 9.59-9.49 19.716-11.91 30.53-.42 1.87-3.373 1.45-3.319-.46.104-3.396.205-6.789.305-10.181-11.3 13.53-16.434 30.749-17.428 48.335-1.025 18.109-.563 46.141 17.538 56.08.95.523 1.948.932 2.972 1.25-1.464-7.783-1.596-16.855 3.5-23.122 4.167-5.124 12.004-7.653 17.64-3.284 14.548 11.27-2.079 32.021-16.68 30.916 5.008 17.726 18.895 31.806 36.04 38.308 1.186.45.736 2.309-.531 1.941-19.106-5.56-34.153-21.522-39.078-40.819C5.106 127.822 1.128 101.564.33 84.221-.719 61.633 3.927 38.291 18.515 20.74l-9.873 2.771c-1.507.423-2.99-1.742-1.635-2.818A568.713 568.713 0 0133.797.636c1.423-1.002 3.114.92 2.313 2.303z" fill="#5879E8"/>
    </symbol>

    <symbol id="star" viewBox="0 0 56 58">
        <path d="M1.076 35.16c5.47 1.529 10.902 3.2 16.335 4.855l.04.158c2.01 5.669 4.336 11.244 6.519 16.85.405 1.041 1.848 1.402 2.48.324 1.828-3.12 3.712-6.205 5.525-9.333 1.325-2.288 3.078-4.647 3.56-7.273.108.056.228.103.37.13 5.675 1.098 11.38 1.515 17.154 1.142 1.051-.068 1.665-1.095 1.173-2.044-2.69-5.195-5.824-10.064-9.935-14.255-.567-.579-1.598.177-1.14.879 2.718 4.181 5.388 8.379 7.704 12.791-4.782.12-9.497-.24-14.225-1.16-.872-.17-1.49.418-1.67 1.086a.666.666 0 00-.519.096c-2.361 1.685-3.597 4.652-5.019 7.122-1.327 2.306-2.617 4.63-3.918 6.95-1.777-4.69-3.52-9.401-5.463-14.019a1.412 1.412 0 00-.715-.749c-.011-.531-.298-1.051-.951-1.25-4.657-1.417-9.317-2.838-13.952-4.328 4.617-3.977 9.423-7.618 14.327-11.27.489-.363.56-.893.388-1.316a1.34 1.34 0 00.113-.48c.196-5.457.092-10.932.09-16.397 4.588 3.203 9.16 6.385 13.672 9.704-.184.963.903 2.126 2.099 1.558A87.054 87.054 0 0151.933 8.95c-2.856 5.233-6.273 10.1-9.027 15.385-.415.798.575 1.582 1.248.96 5.135-4.743 8.652-11.482 11.678-17.687.556-1.138-.354-2.345-1.606-2.088a85.092 85.092 0 00-19.674 6.609C29.963 7.469 24.493 3.214 18.72.156c-.838-.444-1.903.104-1.905 1.091-.011 6.268-.246 12.553-.077 18.819.004.157.047.286.092.412C10.815 23.62 5.244 27.968.424 32.697c-.797.782-.41 2.166.652 2.463z" fill="#FEB9CC"/>
    </symbol>

    <symbol id="house" viewBox="0 0 58 97">
        <path d="M52.907 60.978a64.484 64.484 0 00-4.407-.996c.394-2.944.612-5.913.727-8.82 1.548.282 3.093.569 4.638.873l.236.024a285.43 285.43 0 01-1.194 8.92zm-1.49 9.057l-.098-.04a69.025 69.025 0 00-4.861-.625c.7-2.183 1.235-4.44 1.637-6.73 1.436.459 2.88.888 4.337 1.24-.326 2.053-.646 4.109-1.015 6.155zm-5.057 23.05c-5.9-1.277-11.832-2.354-17.819-3.15-3.19-.426-6.392-.763-9.599-1.041.348-5.216.945-11.986 6.813-13.694 7.955-2.315 7.62 9.015 7.382 13.585-.083 1.633 2.163 1.71 2.675.362 2.418-6.363-.743-18.032-9.173-17.217-8.44.82-10.296 9.765-9.74 16.778-1.05-.078-2.453-.024-3.946.028-2.832.101-5.986.202-7.68-.59-1.312.406-1.768-.073-1.37-1.437a14.996 14.996 0 01-.025-2.716c.019-1.74.133-3.483.2-5.22.147-3.915.3-7.83.445-11.745.015-.422.033-.844.049-1.267 3.317.855 9.25 2.681 11.097-.666 1.233-2.235 1.35-5.562 1.546-8.413.698-.396.754-1.445.176-1.958l.03-.273c.368-2.716.846-5.437 1.113-8.17 7.531 1.129 15.063 2.235 22.577 3.478l-.088.157c-2.04 6.488-2.635 13.617-3.038 20.375-.051.852.727 1.427 1.491 1.49 3.808.315 7.67.764 11.493.748a307.537 307.537 0 01-4.61 20.557zM4.9 56.575a471.8 471.8 0 003.075.121c-.01 2.632.13 5.269.46 7.915-1.293-.11-2.643-.323-3.803-.392.101-2.546.194-5.095.267-7.644zM8.993 44.8a78.681 78.681 0 00-.983 9.778c-1.02.036-2.04.076-3.06.12.075-3.52.072-7.038-.11-10.553 1.383.23 2.769.435 4.153.654zm5.23 12.04c-.031.245-.058.493-.09.738-.297 2.326.142 6.152-2.562 6.904-.424.117-.906.17-1.414.187a126.76 126.76 0 01.052-7.899c1.34.04 2.677.06 4.014.07zM10.32 54.5c.19-3.115.518-6.222 1.042-9.329 1.427.222 2.854.458 4.282.673-.501 2.835-.81 5.724-1.136 8.59-1.394.008-2.791.028-4.188.067zm30.763 14.426c.211-2.823.542-5.627.89-8.428 1.051.39 2.11.774 3.172 1.15-.247 2.515-.468 5.032-.604 7.551a503.73 503.73 0 00-3.458-.273zm4.276-9.51a204.07 204.07 0 00-3.193-.504c.364-2.897.731-5.794.995-8.706l-.01-.112c1.022.173 2.044.355 3.065.534l-.082.3c-.2 2.831-.49 5.66-.775 8.488zM33.712 6.553C40.71 20.17 47.215 34.02 53.177 48.124c-11.458-2.284-23.105-4.334-34.795-5.466-.448-.443-1.228-.52-1.747-.162a192.03 192.03 0 00-11.178-.685c11.341-9.74 20.391-22.56 28.255-35.257zm24.12 41.755A626.78 626.78 0 0035.75 1.05c-.767-1.476-2.922-1.324-3.728 0C23.24 15.487 12.38 28.107 2.488 41.717c-1.109-.004-1.418 1.8-.263 1.998l.08.012c-1.182 9.004-1.26 18.15-1.597 27.215-.163 4.351-.325 8.699-.486 13.05-.065 1.768-.759 5.112.688 6.682.885.96 1.927.865 3.067 1.091 2.47.492 5.206.48 7.904.469 1.725-.007 3.434-.014 5.051.109 10.202.782 20.284 2.38 30.265 4.608.945.21 1.963-.28 2.223-1.262a309.728 309.728 0 008.4-44.806 1.578 1.578 0 00-.13-.874c.321-.43.43-1.008.14-1.701z" fill="#FFD787"/>
    </symbol>

    <symbol id="pencil" viewBox="0 0 44 132">
        <path d="M32.775 128.836c2.91-.438 5.848-.968 7.686-3.387 2.042-2.691 1.025-5.845.028-8.801-1.825 2.003-4.759 2.984-7.28 3.654-2.944.783-7.147 1.001-10.492-.052.361 2.093.67 4.482 1.596 6.339 1.012 2.026 2.229 2.394 4.556 2.576 1.283.099 2.648-.138 3.906-.329zm6.552-19.542a.63.63 0 01-.148-.5c-2.471 3.799-8.489 6.002-12.885 6.135-2.091.064-4.588-.161-6.683-1.051 1.585 4.442 6.316 5.576 10.931 4.761 3.715-.656 13.516-3.488 8.785-9.345zm-1.578-5.993a1.374 1.374 0 01-.373.166c-4.666 5.128-13.314 4.831-19.696 3.697-1.508 5.409 7.3 5.842 10.598 5.31 4.108-.664 11.429-3.6 9.47-9.173zm-2.376-1.147c-2.768-27.797-9.128-54.616-16.969-81.386-1.669 1.778-3.578 3.176-5.656 4.172.205.123.403.278.563.505 3.378 4.777 4.087 11.952 5.507 17.558a640.275 640.275 0 014.804 20.407c2.907 13.333 5.362 26.755 7.423 40.241a2.49 2.49 0 01-.008.758 16.564 16.564 0 004.457-1.808 1.578 1.578 0 01-.12-.447zm-18.03-82.683c-3.468-3.23-6.736-6.684-10.024-10.115-.762 1.625-2.367 2.656-4.195 2.762.118 3.868.224 7.736.169 11.6-.002.099-.035.173-.054.258 5.163.34 10.163-1.046 14.103-4.505zM5.293 9.274a5.324 5.324 0 01-.704-.367 9.602 9.602 0 01-.251 1.074 3.086 3.086 0 001.15-.654l-.195-.053zm14.338 95.611c2.378.134 4.67.254 6.886.149l-.037-.138c-2.054-13.487-4.502-26.91-7.402-40.246a636.403 636.403 0 00-4.552-19.44c-1.48-5.905-4.676-12.855-4.259-18.949.01-.138.05-.255.082-.375-2.403.746-4.98.988-7.647.668 7.556 25.524 12.254 52.184 16.929 78.331zm4.542 26.305c-3.146-1.663-3.594-7.932-4.07-10.964a1.308 1.308 0 01.265-1.036c-2.076-1.305-3.37-3.421-2.996-6.646l.015-.049a6.445 6.445 0 01-1.017-1.125c-1.425-2.07-1.306-5.07.905-6.387C12.415 77.998 5.732 51.429.519 24.531c-.088-.449.176-.767.504-.883C.44 16.245.453 8.797.003 1.383-.074.118 1.595-.429 2.44.383 8.524 6.216 14.859 12.254 19.578 19.26l.07.166c.115.093.21.22.275.386 9.909 25.843 15.372 53.475 18.198 80.939.341-.148.74.076.78.413a.94.94 0 01.542.497c1.264 2.594 1.048 4.866-.041 6.764.2-.153.498-.19.777.024 2.075 1.596 2.53 4.336 1.376 6.689-.065.131-.155.241-.226.364.22.021.428.125.544.373 1.412 3.031 2.952 6.573 1.613 9.902-1.32 3.279-4.995 4.485-8.178 5.204-3.122.707-8.168 1.778-11.134.209z" fill="#8DD9E5"/>
    </symbol>

    <symbol id="arrow-left" viewBox="0 0 17 10">
        <path d="M16 5H1m0 0l4-4M1 5l4 4" stroke="#122659" stroke-width="2" stroke-linecap="round" stroke-linejoin="round"/>
    </symbol>

    <symbol id="arrow-right" viewBox="0 0 17 10">
        <path d="M1 5h15m0 0l-4 4m4-4l-4-4" stroke="#122659" stroke-width="2" stroke-linecap="round" stroke-linejoin="round"/>
    </symbol>

    <symbol id="rainbow" viewBox="0 0 185 160">
        <path d="M174.314 90.754c-2.632 6.27-9.127 7.747-15.015 5.929-.103-.254-.204-.508-.328-.754-.734-1.459-3.44-.989-2.976.813 1.203 4.67.797 9.691-3.472 12.745-4.671 3.34-10.894 1.201-14.196-2.895-.354-.438-.789-.543-1.187-.468-.29-.017-.584.083-.766.337-1.54 2.152-2.677 4.142-5.459 4.835-3.003.749-5.863-.657-7.327-3.322-3.393-6.173 1.526-11.674 7.579-12.722 1.191-.206 1.218-1.944-.005-2.127l-.266-.018c-5.123-3.437-12.533-7.887-7.403-14.9 4.722-6.454 12.632-3.702 17.725.515 1.203.996 3.053-.84 1.938-1.997-.198-.207-.416-.396-.627-.593.65.153 1.459-.15 1.485-.932.227-7 5.78-13.426 13.25-12.3 7.35 1.107 10.269 8.849 6.543 14.685-.61.198-.901.724-.873 1.267-.853 1.62 1.565 3.199 2.907 1.703l.084-.107c1.859.258 3.749.477 5.47 1.203 3.841 1.618 4.404 5.562 2.919 9.103zM93.749 67.598c-11.463 4.643-17.928 17.217-14.72 29.044-2.888-.243-5.867.225-8.62 1.336-2.995-15.552.985-31.474 16.315-38.931 14.808-7.205 32.282-1.306 40.612 12.572-2.489.624-4.786 2.004-6.57 4.356-4.487-9.638-17.22-12.345-27.017-8.377zM87.48 105.41c5.151 7.242-.51 15.888-8.56 15.43a8.528 8.528 0 00-1.15-.866c-1.26-.778-3.137.76-1.955 2.013 3.21 3.403 4.701 8.909.91 12.613-4.06 3.965-10.918 1.864-13.767-2.445-.186-.281-.474-.279-.691-.139-.58-.306-1.344-.193-1.638.586-2.438 6.449-4.731 13.747-13.332 13.594-11.676-.21-5.544-14.312-3.022-20.168.846-.879-.179-2.213-1.327-1.864-3.68 1.121-12.751 5.002-13.384-2.041-.551-6.111 6.492-7.791 11.312-7.744.23.145.453.302.702.425 1.221.607 2.552-1.152 1.611-2.154-4.766-5.077-3.206-10.726 3.435-13.373 6.082-2.424 14.023-.762 14.589 6.886.1 1.34 2.142 1.282 2.316-.006.021-.163.03-.317.044-.476.423.18.92.171 1.355-.192 6.623-5.52 16.654-8.376 22.552-.079zM50.604 58.992c6.15-12.887 17.142-22.742 30.481-27.78 27.344-10.323 57.707 2.814 70.119 28.913-4.213 1.557-7.383 5.285-8.748 9.833-6.174-21.768-29.908-35.375-52.1-29.726-20.672 5.263-47.064 33.085-32.462 55.274.853 1.295 2.902.004 2.312-1.372-9.518-22.177 11.632-46.181 32.767-50.588 20.853-4.35 42.094 9.635 46.617 30.343-2.484-1.522-5.334-2.476-8.154-2.64a1.856 1.856 0 00-.244-.702c-9.111-15.62-28.073-22.77-44.908-15.163-15.746 7.114-25.453 26.889-17.706 43.21l.123.166a18.003 18.003 0 00-5.214 4.095c-1.29-7.431-10.996-9.419-17.771-6.901-.675-13.037-.91-24.812 4.888-36.962zm117.28 18.417c3.077-6.785-.676-15.31-8.26-17.488a14.304 14.304 0 00-4.34-.572 2.353 2.353 0 00-.146-.405c-13.216-27.855-45.217-41.82-74.5-31.465-14.06 4.972-25.775 15.132-32.612 28.376-6.121 11.859-9.502 28.13-4.53 40.95l.081.132c-3.566 1.909-6.533 4.823-6.756 9.098-.119 2.284.531 4.55 1.848 6.316-6.29.093-13.296 3.051-12.101 10.614 1.014 6.409 7.533 7.217 12.867 5.569-4.358 7.043-4.053 18.747 4.826 21.004 8.03 2.044 18.947-5.81 18.937-14.433 3.314 4.773 10.66 6.103 15.326 2.124 3.652-3.114 4.644-9.029 2.624-13.37 8.357.202 14.535-10.479 10.845-18.367-2.15-4.598-5.965-7.346-10.254-8.41-1.483-9.399.844-18.817 9.244-24.362 9.139-6.034 24.598-4.539 27.416 7.78.027.12.067.229.112.334-1.023 5.39 2.94 10.096 8.154 12.65-6.404 2.067-9.616 10.641-5.498 16.617 2.266 3.289 6.21 4.917 10.114 3.949 2.319-.575 4.918-2.163 6.085-4.38 3.869 4.391 10.602 5.854 15.899 3.053 4.619-2.441 7.423-8.085 6.771-13.25 7.029 2.725 15.328-1.253 17.877-8.617 2.766-7.987-3.05-12.87-10.029-13.447z" fill="#FEB9CC"/>
    </symbol>
    <symbol id="boy" viewBox="0 0 118 133">
        <path d="M57.093 25.973c-2.04-1.044-4.707-.15-5.736 1.871-.37.726.593 1.601 1.187.919.905-1.04 2.325-1.664 3.68-1.16 1.501.558 2.013 2.26 1.535 3.689-.331.99 1.205 1.397 1.55.429.76-2.129-.176-4.705-2.215-5.748zm22.94 7.817c-2.532-.707-5.538 1.144-5.524 3.9.003.44.63.638.85.231.747-1.398 2.227-2.654 3.925-2.31 1.837.372 2.457 2.333 2.147 3.969-.169.899 1.119 1.608 1.576.668 1.2-2.47-.344-5.722-2.974-6.458zm-15.366 2.645c-.513-.045.325-.009-.256-.055a1.283 1.283 0 00-.463.022c-.294.076-.578.253-.81.444a2.73 2.73 0 00-.935 1.563c-.269 1.248.111 2.686 1.306 3.295.38.194.727.118 1.046-.135.861-.681-.532-1.49-.61-2.205-.043-.387.066-.797.241-1.14.152-.3.427-.473.61-.722l.14-.072c.53-.24.198-.954-.27-.995zm2.768 7.655c-3.788-.44-7.056-1.348-10.248-3.54-.417-.286-.909.36-.539.703 2.877 2.663 6.802 4.456 10.787 4.236.915-.051.878-1.297 0-1.4z" fill="#8DD9E5"/><path d="M113.256 42.35c-1.847.74-3.423-.105-4.722-1.303.049-.114.113-.222.159-.336.238-.598-.219-1.042-.743-1.132-.216-1.615.012-3.18 1.801-4.112 2.022-1.055 4.766-.204 5.489 2.036.594 1.84-.111 4.097-1.984 4.846zm-37.453 6.14c-13.408 3.184-28.401-4.135-29.283-19.035-.273-4.597.804-8.77 2.793-12.458 4.704 1.308 9.462 1.419 14.22.704-1.114 1.284-2.295 2.296-3.935 3.441-.727.508-.704 1.745.258 1.986 6.676 1.67 13.107 1.58 19.435-.485a11.061 11.061 0 01-3.845 2.364c-1.061.385-1.064 1.787 0 2.172 6.068 2.2 12.228 2.382 18.343.378-.85 9.836-7.987 18.558-17.986 20.932zm4.008 10.776c-2.788-.582-5.586-1.133-8.41-1.497.002-1.823-.015-3.647-.065-5.474a29.624 29.624 0 004.452-.6 27.07 27.07 0 003.587-1.035c.251 2.908.66 5.664.436 8.607zM66.114 86.73c-6.192-.66-12.25-2.036-18.084-4.262-6.016-2.297-14.024-5.742-18.51-10.558-1.007-1.081-1.45-.724-1.056-2.15.209-.75 3.806-3.292 4.415-3.844a147.1 147.1 0 006.343-6.074c4.276-4.357 8.797-8.944 11.77-14.333 4.602 4.18 10.845 6.55 17.34 6.815a185.935 185.935 0 01-2.218 34.406zm-26.11-42.201c1.86-2.109 3.815-4.137 5.653-6.27a22.5 22.5 0 004.194 6.138 79.393 79.393 0 00-3.97 3.77c-1.781-1.42-3.825-2.6-5.876-3.638zM64.498 3.143c.159.3.462.513.945.479C77.3 2.767 89.88 7.06 93.169 19.915c.42 1.648.646 3.3.697 4.935l-.26.064c-5.025 1.771-9.815 2.107-14.774.905 1.935-1.201 3.426-2.809 4.618-5.031.545-1.017-.522-1.947-1.491-1.496-6.163 2.855-12.759 3.711-19.316 2.297 1.697-1.389 3.105-2.975 4.38-4.898.54-.814-.35-1.828-1.223-1.597-5.412 1.431-10.351 1.478-15.804.732 3.316-5.44 8.633-9.75 14.502-12.683zM50.483 127.612c.448.004.891.069 1.326.193 1.302.183 1.543.739.722 1.671-.551 1.267-.706 1.121-1.9 1.086a14.46 14.46 0 01-2.548-.303c-1.193-.25-2.314-.674-3.391-1.214.078-.119.143-.256.185-.421 1.243-.395 2.46-.808 3.784-.954a10.557 10.557 0 011.822-.058zM7.03 112.723c-1.059-.416-3.59-1.527-4.001-2.694-.314-.895.709-.459 1.286-.256.764.268 1.466.631 2.15 1.06 1.16.724 2.04 1.652 2.974 2.589-.815-.192-1.624-.392-2.409-.699zM30.928 12.206c-1.485-.57-2.578-1.812-2.564-3.512.019-2.166 2.01-3.666 3.93-4.167 2.525-.659 5.27.2 4.763 3.31-.436 2.685-2.536 4.891-5.347 3.799-.478-.185-.765.175-.782.57zm86.513 23.944c-1.491-3.317-5.781-4.516-8.897-2.754-2.388 1.347-3.95 5.08-2.79 7.722-3.148 3.144-5.79 6.367-9.847 8.708-4.189 2.416-8.683 3.473-13.342 4.399-.072-1.585-.298-3.144-.782-4.576 10.705-5.117 17.21-16.913 14.871-29.146C94.316 8.267 80.786-2.287 68.258.431a.633.633 0 00-.483-.077C53.33 3.331 41.725 15.976 43.7 31.434a23.476 23.476 0 001.087 4.639l-.226.174c-.783.905-1.58 1.81-2.389 2.706a1.19 1.19 0 00-.259-.624c-6.275-7.764-8.856-14.797-9.2-24.686 3.165.984 6.053-2.414 6.614-5.813.504-3.05-.865-6.099-5.587-5.982-3.445.088-7.235 2.338-7.745 6.002-.398 2.855 1.449 6.248 4.43 6.533-1.266 9.17 2.768 19.77 9.98 25.458.236.187.482.255.714.26-1.316 1.396-2.693 2.73-4.188 3.905-.697.55-.39 1.697.27 2.098 2.224 1.35 4.64 2.741 7.128 3.656-4.045 4.226-7.873 8.71-12.155 12.685-3.355 3.113-10.318 6.523-5.504 11.02.389.363.799.707 1.201 1.058-3.508 3.763-6.57 7.934-9.622 12.072-1.686 2.284-7.131 7.418-6.992 10.371.109 2.32 3.475 4.258 5.16 5.42.696.481 1.413.918 2.142 1.33-1.64 1.42-3.056 3.123-4.509 4.72-1.04 1.143-2.394 2.295-3.44 3.567-2.36-2.709-8.784-7.415-10.43-3.466-.902 2.162 1.813 4.093 3.371 5.042 1.928 1.176 4.28 1.971 6.556 1.744.271.101.588.104.916-.08 2.038-1.14 3.566-3.551 5.06-5.323 1.43-1.695 2.921-3.444 3.99-5.401a29.787 29.787 0 007.835 2.57c.36.066.667-.017.917-.173a.646.646 0 00.606-.178c2.653-2.664 5.375-5.769 7.411-8.938.625-.976-.801-2.072-1.598-1.236-2.322 2.436-4.445 5.398-6.275 8.293a1.205 1.205 0 00-.398-.184c-3.28-.82-6.44-1.881-9.327-3.691-1.332-.837-4.077-2.108-4.45-3.5-.402-1.511.797-2.472 1.992-4.134 4.198-5.84 8.605-11.65 12.072-17.97 9.18 7.577 21.396 12.015 33.164 13.844-2.783 7.484-4.848 15.706-6.719 23.513-4.322.11-9.98-.048-13.745-2.567-1.983-1.329-.776-2.852-.136-4.97.721-2.381 1.437-4.753 1.944-7.188 1.631.07 3.254-.18 4.752-.832.879-.381.448-1.922-.494-1.827-5.896.593-10.47-.404-14.44-5.17-.603-.725-1.725.205-1.278.99 1.9 3.34 5.64 5.863 9.585 6.619-1.184 2.798-2.129 5.693-3.065 8.584-.574 1.769-1.442 3.606.159 5.035 1.704 1.521 4.798 2.356 7.017 2.903-1.376 4.404-2.33 9.081-3.205 13.611a1.36 1.36 0 00.032.659c-.609.47-.81 1.514.057 2.008 2.75 1.569 13.672 5.11 13.284-1.232-.297-4.815-6.479-4.509-10.375-2.94.895-3.852 1.723-7.787 2.216-11.682 2.517.464 5.093.619 7.636.372.417.392 1.124.469 1.402-.176 3.382-7.843 6.524-16.89 7.77-25.373.99.125 1.978.237 2.956.325.595.054 1.351-.503 1.453-1.108a191.058 191.058 0 002.557-29.103c3.019.923 6.107 1.618 9.183 2.311.6.136 1.435-.179 1.54-.877.258-1.71.463-3.585.483-5.464 8.928.504 20.465-4.805 25.086-12.879 1.454 1.97 4.802 2.53 6.909 1.653 3.122-1.298 4.178-5.327 2.855-8.267z" fill="#8DD9E5"/>
    </symbol>
    <symbol id="fb" viewBox="0 0 6 12">
        <path d="M4 6.9H5.42857L6 4.5H4V3.3C4 2.682 4 2.1 5.14286 2.1H6V0.0840001C5.81371 0.0582001 5.11029 0 4.36743 0C2.816 0 1.71429 0.9942 1.71429 2.82V4.5H0V6.9H1.71429V12H4V6.9Z" fill="#122659"/>

    </symbol>
    <symbol id="instagram" viewBox="0 0 12 12">
        <path d="M6 0C7.6302 0 7.8336 0.00599997 8.4732 0.036C9.1122 0.066 9.5472 0.1662 9.93 0.315C10.326 0.4674 10.6596 0.6738 10.9932 1.0068C11.2983 1.30674 11.5344 1.66955 11.685 2.07C11.8332 2.4522 11.934 2.8878 11.964 3.5268C11.9922 4.1664 12 4.3698 12 6C12 7.6302 11.994 7.8336 11.964 8.4732C11.934 9.1122 11.8332 9.5472 11.685 9.93C11.5348 10.3307 11.2987 10.6936 10.9932 10.9932C10.6932 11.2982 10.3304 11.5343 9.93 11.685C9.5478 11.8332 9.1122 11.934 8.4732 11.964C7.8336 11.9922 7.6302 12 6 12C4.3698 12 4.1664 11.994 3.5268 11.964C2.8878 11.934 2.4528 11.8332 2.07 11.685C1.6694 11.5347 1.30652 11.2986 1.0068 10.9932C0.701644 10.6933 0.465559 10.3305 0.315 9.93C0.1662 9.5478 0.066 9.1122 0.036 8.4732C0.00779997 7.8336 0 7.6302 0 6C0 4.3698 0.00599997 4.1664 0.036 3.5268C0.066 2.8872 0.1662 2.4528 0.315 2.07C0.465142 1.66931 0.701282 1.30639 1.0068 1.0068C1.3066 0.701539 1.66946 0.465438 2.07 0.315C2.4528 0.1662 2.8872 0.066 3.5268 0.036C4.1664 0.00779997 4.3698 0 6 0ZM6 3C5.20435 3 4.44129 3.31607 3.87868 3.87868C3.31607 4.44129 3 5.20435 3 6C3 6.79565 3.31607 7.55871 3.87868 8.12132C4.44129 8.68393 5.20435 9 6 9C6.79565 9 7.55871 8.68393 8.12132 8.12132C8.68393 7.55871 9 6.79565 9 6C9 5.20435 8.68393 4.44129 8.12132 3.87868C7.55871 3.31607 6.79565 3 6 3ZM9.9 2.85C9.9 2.65109 9.82098 2.46032 9.68033 2.31967C9.53968 2.17902 9.34891 2.1 9.15 2.1C8.95109 2.1 8.76032 2.17902 8.61967 2.31967C8.47902 2.46032 8.4 2.65109 8.4 2.85C8.4 3.04891 8.47902 3.23968 8.61967 3.38033C8.76032 3.52098 8.95109 3.6 9.15 3.6C9.34891 3.6 9.53968 3.52098 9.68033 3.38033C9.82098 3.23968 9.9 3.04891 9.9 2.85ZM6 4.2C6.47739 4.2 6.93523 4.38964 7.27279 4.72721C7.61036 5.06477 7.8 5.52261 7.8 6C7.8 6.47739 7.61036 6.93523 7.27279 7.27279C6.93523 7.61036 6.47739 7.8 6 7.8C5.52261 7.8 5.06477 7.61036 4.72721 7.27279C4.38964 6.93523 4.2 6.47739 4.2 6C4.2 5.52261 4.38964 5.06477 4.72721 4.72721C5.06477 4.38964 5.52261 4.2 6 4.2Z" fill="#122659"/>
    </symbol>
    <symbol id="vk" viewBox="0 0 14 8">
        <path fill-rule="evenodd" clip-rule="evenodd" d="M6.84965 7.96651H7.68648C7.68648 7.96651 7.93926 7.93871 8.06831 7.79936C8.1871 7.67143 8.1833 7.43117 8.1833 7.43117C8.1833 7.43117 8.16695 6.30644 8.6881 6.14082C9.20183 5.97767 9.86152 7.22785 10.5608 7.70855C11.0895 8.07236 11.4913 7.99259 11.4913 7.99259L13.3609 7.96651C13.3609 7.96651 14.339 7.90616 13.8752 7.1359C13.8372 7.07289 13.6051 6.56611 12.4851 5.52477C11.3128 4.43487 11.4698 4.61116 12.882 2.72588C13.742 1.57774 14.0858 0.876778 13.9784 0.576558C13.876 0.290616 13.2434 0.366194 13.2434 0.366194L11.1383 0.37933C11.1383 0.37933 10.9823 0.358008 10.8666 0.427304C10.7535 0.495268 10.6807 0.65366 10.6807 0.65366C10.6807 0.65366 10.3475 1.54214 9.90315 2.29773C8.96577 3.89212 8.59098 3.97626 8.43779 3.87727C8.08143 3.64653 8.17037 2.95034 8.17037 2.45574C8.17037 0.910665 8.40434 0.266439 7.7148 0.0996707C7.48597 0.0442718 7.31758 0.00771992 6.73238 0.00181831C5.98127 -0.00598703 5.34552 0.00410255 4.98554 0.18077C4.74607 0.298231 4.56133 0.559995 4.67385 0.575035C4.81297 0.593692 5.12809 0.660132 5.29515 0.88801C5.51087 1.18195 5.50327 1.84217 5.50327 1.84217C5.50327 1.84217 5.62719 3.661 5.21381 3.88698C4.93005 4.04194 4.5408 3.72554 3.70511 2.27908C3.27691 1.53814 2.95362 0.719148 2.95362 0.719148C2.95362 0.719148 2.89128 0.566087 2.78009 0.484226C2.64515 0.385041 2.45661 0.35344 2.45661 0.35344L0.456232 0.366575C0.456232 0.366575 0.155938 0.374952 0.0457033 0.505739C-0.0523675 0.622058 0.0379107 0.862691 0.0379107 0.862691C0.0379107 0.862691 1.604 4.53273 3.37726 6.38221C5.00322 8.07788 6.84965 7.96651 6.84965 7.96651Z" fill="#122659"/>
    </symbol>
    <symbol id="map-pin" viewBox="0 0 32 39">
        <path d="M27.314 27.577L16 39 4.686 27.577a16.203 16.203 0 01-4.379-8.271 16.3 16.3 0 01.911-9.334 16.122 16.122 0 015.893-7.25A15.891 15.891 0 0116 0c3.165 0 6.258.947 8.89 2.722a16.122 16.122 0 015.892 7.25 16.299 16.299 0 01.91 9.334 16.204 16.204 0 01-4.378 8.271zM16 19.744c.943 0 1.847-.378 2.514-1.051a3.607 3.607 0 001.042-2.539c0-.952-.375-1.865-1.042-2.538A3.539 3.539 0 0016 12.564a3.54 3.54 0 00-2.514 1.052 3.607 3.607 0 00-1.042 2.538 3.61 3.61 0 001.042 2.539A3.539 3.539 0 0016 19.744z" fill="#5879E8"/>
    </symbol>
    <symbol id="C" viewBox="0 0 12 12">
        <path d="M6 0C9.312 0 12 2.688 12 6C12 9.312 9.312 12 6 12C2.688 12 0 9.312 0 6C0 2.688 2.688 0 6 0ZM6 1.2C3.348 1.2 1.2 3.348 1.2 6C1.2 8.652 3.348 10.8 6 10.8C8.652 10.8 10.8 8.652 10.8 6C10.8 3.348 8.652 1.2 6 1.2ZM6 3C7.092 3 8.0478 3.5838 8.5728 4.4568L7.5444 5.0742C7.38256 4.80435 7.1528 4.58163 6.87804 4.42827C6.60328 4.2749 6.29311 4.19625 5.97847 4.20014C5.66383 4.20403 5.3557 4.29034 5.08482 4.45045C4.81394 4.61057 4.58976 4.8389 4.43464 5.11267C4.27953 5.38645 4.19889 5.69611 4.20077 6.01077C4.20265 6.32543 4.28699 6.6341 4.44537 6.906C4.60375 7.1779 4.83064 7.40353 5.10342 7.56039C5.3762 7.71726 5.68533 7.79987 6 7.8C6.31088 7.8002 6.61651 7.71983 6.88707 7.56673C7.15764 7.41362 7.3839 7.19301 7.5438 6.9264L8.5728 7.5432C8.23561 8.10637 7.72299 8.54338 7.11356 8.78721C6.50412 9.03103 5.83153 9.06821 5.19894 8.89304C4.56635 8.71786 4.00869 8.34001 3.61148 7.81743C3.21428 7.29485 2.99947 6.6564 3 6C3 4.344 4.344 3 6 3Z" fill="#122659"/>
    </symbol>

</svg>